<svg width="598" height="806" viewBox="0 0 598 806" fill="none" xmlns="http://www.w3.org/2000/svg">
<path d="M570.301 132.13C544.314 88.6863 502.227 59.0733 448.604 46.4814C423.274 40.5418 397.153 37.5211 370.947 37.5211C329.197 37.5211 287.009 44.8013 241.992 59.803C226.295 65.0298 210.582 67.6772 195.324 67.6772C152.664 67.6772 118.391 47.4148 98.8384 10.6403C97.2721 7.67053 91.5628 0 84.1862 0C83.7652 0 83.3441 0.0339404 82.9399 0.0678808C74.8223 1.05215 70.1909 10.233 69.3488 12.0488C61.4501 29.1718 59.2607 46.9226 62.7974 65.8783C61.669 65.6068 60.5238 65.4541 59.3449 65.4541C49.6947 65.4541 46.1074 74.8895 44.7601 78.4533C35.5141 102.856 38.7645 126.173 54.1409 145.91C66.9405 162.337 83.7146 170.669 103.992 170.669C104.244 170.669 104.497 170.669 104.75 170.669C76.7085 218.865 64.4311 264.582 68.2878 306.77C72.5992 354.032 97.1373 398.189 141.279 438.103C123.612 455.837 103.15 472.722 78.999 489.54C73.475 493.375 69.113 496.412 67.7825 501.928C66.4015 507.715 69.2309 512.619 72.4982 518.304C75.0918 522.784 79.0327 529.267 84.1188 535.071C70.5109 547.035 56.8187 559.287 43.5475 571.149C32.8531 580.703 21.8051 590.597 10.8749 600.253C-5.34349 614.61 0.820515 626.438 2.8415 630.324C6.69822 637.74 13.0306 641.66 21.1314 641.66C24.8703 641.66 28.9964 640.829 33.7458 639.115C42.4192 635.975 51.0757 632.836 60.0859 629.561C57.8965 633.04 55.724 636.451 53.5514 639.811C45.2317 652.657 50.9747 661.176 55.1345 665.113C59.5133 669.254 63.9763 670.12 66.9573 670.12C72.5487 670.12 77.2138 667.15 80.2284 664.927C85.9209 660.735 91.7312 656.543 97.0531 652.708C98.1142 655.118 99.5625 657.494 101.701 659.445C105.491 662.873 109.331 663.603 111.874 663.603C118.088 663.603 122.72 659.632 126.088 656.747C126.492 656.408 126.88 656.068 127.267 655.746C130.282 653.234 133.296 650.706 136.294 648.194C143.014 642.543 149.969 636.705 156.908 631.173C166.946 635.348 176.815 639.726 187.24 644.342C188.419 644.868 189.597 645.377 190.776 645.903C188.621 656.357 190.12 665.555 195.307 673.717C188.435 676.755 181.918 679.623 175.383 682.016C168.562 684.51 160.664 687.242 153.001 688.142C136.648 690.043 126.155 699.24 121.827 715.515L121.625 716.278L121.052 724.119V726.138V730.16L122.753 742.599L123.36 746.859L134.66 773.757L135.923 776.031L136.227 776.54L136.412 776.794L136.227 778.254L164.638 803.437L167.838 804.218L171.577 805.525H172.503L177.438 806L188.907 803.471L247.852 754.614L242.884 748.522L248.796 753.715L250.463 751.797L248.812 750.253L250.547 751.678L252.518 749.252L252.854 749.744L261.427 739.816L262.302 736.761L262.774 736.134L264.576 733.554L264.711 733.334C265.401 732.197 266.125 731.077 266.833 729.956C268.601 727.19 270.454 724.322 272.02 721.115C275.27 714.446 277.073 713.784 280.693 713.784C281.098 713.784 281.519 713.784 281.957 713.835C282.563 713.869 283.152 713.903 283.725 713.903C296.103 713.903 305.72 705.129 309.442 690.772C313.45 692.826 317.795 693.895 322.191 693.895C329.13 693.895 336.136 691.214 341.912 686.343C344.573 684.103 346.999 683.153 350.03 683.153C352.152 683.153 354.678 683.611 358.232 684.646C361.129 685.495 364.059 686.665 367.158 687.904C368.488 688.43 369.819 688.973 371.149 689.483L385.094 696.797L393.01 702.448L403.064 709.575L413.641 715.99L414.146 714.836L415.072 715.243L417.396 715.888L422.87 717.297L437.185 717.432L456.587 712.647L459.096 712.189L463.997 711.204L470.632 711.272L473.512 711.985L480.973 716.041L488.097 725.069L488.99 725.731C495.491 730.567 502.21 733.011 508.964 733.011C514.976 733.011 520.921 731.077 526.614 727.241L527.17 726.868L528.584 726.444L536.651 713.326L537.594 708.235L537.544 696.322L536.315 691.163L535.86 690.263C523.633 666.098 502.901 653.2 472.519 651.011C472.586 650.485 472.67 649.976 472.738 649.45C473.933 640.965 475.163 632.191 476.224 623.519C477.133 616.12 474.708 611.606 472.519 609.112C470.38 606.685 466.372 603.783 459.399 603.783C458.81 603.783 458.187 603.8 457.648 603.851C457.496 603.851 457.344 603.851 457.193 603.834H456.755C453.943 603.715 451.298 603.613 449.008 603.613C432.688 603.613 430.078 611.165 425.362 624.894L425.076 625.742C423.645 629.883 421.219 633.905 418.44 636.773C416.285 638.979 414.82 639.777 414.163 639.777C413.792 639.777 412.327 639.556 408.976 636.756C392.976 623.35 375.208 614.372 356.144 610.011C390.888 579.159 412.664 540.891 419.232 499.145C425.952 456.397 416.369 412.071 391.511 370.969C391.292 370.612 391.073 370.239 390.854 369.883C410.07 356.323 423.611 338.454 431.139 316.647C432.84 311.709 433.598 304.004 430.095 298.523C427.939 295.163 424.116 293.466 418.727 293.466C416.318 293.466 413.59 293.788 411.215 294.348C406.786 295.4 402.711 296.147 398.904 296.588C411.249 290.784 423.863 284.896 436.394 279.296C439.29 278.006 442.187 276.682 445.101 275.359C458.355 269.334 472.081 263.123 485.84 258.897C494.716 256.182 503.49 254.791 511.945 254.791C531.329 254.791 549.838 262.054 566.949 276.377C571.227 279.957 575.926 283.284 581.197 283.284C592.464 283.284 594.452 270.217 595.092 265.906C602.283 218.407 593.475 170.89 570.301 132.13ZM176.478 773.977C176.427 774.673 176.309 775.165 176.208 775.505C175.888 775.437 175.417 775.301 174.794 774.995C161.96 768.92 147.527 737.135 151.013 722.676L151.081 722.337C151.283 721.353 151.451 720.572 151.62 719.944C151.856 720.029 152.125 720.131 152.411 720.25C165.935 727.055 170.903 740.75 175.198 755.361C176.646 760.333 177.084 766.595 176.478 773.994V773.977ZM436.73 661.465C436.461 662.245 436.191 663.06 435.956 663.875L435.333 663.128L436.73 661.465ZM362.021 646.225C362.156 644.902 362.274 643.578 362.392 642.254C368.421 644.427 374.029 647.413 379.351 651.249L380.816 652.471L381.052 652.199L381.136 652.233L381.254 651.961L385.01 647.634L381.659 653.047L384.421 654.778L385.818 655.881L387.553 657.358L389.524 658.97L389.827 659.004L391.191 660.005L397.692 663.399C404.294 666.844 411.098 670.425 417.952 673.768C419.266 674.413 420.68 674.735 422.162 674.735C424.588 674.735 426.558 673.853 427.855 673.276C428.057 673.191 428.259 673.089 428.343 673.055L435.181 670.951C435.366 672.563 435.871 674.141 436.831 675.686C440.25 681.184 446.987 681.761 451.012 682.117L452.343 682.236L453.639 681.931C459.601 680.539 464.94 679.86 469.992 679.86C478.464 679.86 485.958 681.846 492.729 685.885L505.932 697.153L506.033 698.731L508.105 700.954C508.728 701.616 509.014 702.108 509.132 702.363C509.048 702.516 508.863 702.753 508.576 703.076C508.273 702.736 507.903 702.278 507.465 701.65C498 688.21 484.645 681.099 468.83 681.099C462.953 681.099 456.688 682.083 450.221 684.018C443.989 685.885 438.499 686.784 433.429 686.784C423.897 686.784 415.577 683.509 407.207 676.483C394.256 665.605 378.829 658.444 361.297 655.169C361.449 652.25 361.735 649.28 362.021 646.175V646.225ZM90.9733 51.6743C112.952 75.738 140.774 90.1118 175.131 95.135L166.289 100.633C158.188 103.976 150.087 105.657 142.188 105.657C114.046 105.657 92.0007 83.5952 90.9397 54.3556C90.906 53.4731 90.9397 52.5737 90.9733 51.6573V51.6743ZM104.649 141.548C94.7795 141.548 85.2809 137.442 78.5611 130.297C72.1782 123.509 68.9446 114.685 69.433 105.419V105.063L69.3993 103.281C70.7803 104.163 72.1445 105.029 73.5087 105.877C79.3527 109.577 85.382 113.395 91.007 117.4C104.127 126.734 117.061 132.181 130.955 134.116C126.728 136.491 121.473 138.171 115.141 140.021C111.688 141.022 108.152 141.548 104.649 141.548ZM253.343 695.201C241.335 718.043 225.184 738.17 205.243 755.14C204.671 752.9 203.946 750.711 203.239 748.59C202.094 745.094 200.511 740.325 201.067 738.458C201.572 737.05 205.85 734.08 208.157 732.485C210.296 730.992 212.519 729.464 214.574 727.716L221.647 721.658L214.978 715.158C214.708 714.904 214.456 714.649 214.186 714.412L209.959 710.526L204.822 713.054C203.374 713.767 201.909 714.463 200.46 715.141C197.53 716.533 194.532 717.959 191.551 719.554C189.446 716.228 187.172 713.105 184.966 710.067C184.899 709.966 184.831 709.881 184.764 709.779L207.601 698.901L205.816 709.015L216.527 698.069L216.645 698.205L222.22 692.249L225.874 688.515L239.448 680.454C249.2 680.675 251.995 684.358 253.427 690.603C253.882 692.605 253.612 694.658 253.343 695.201ZM241.2 650.79C235.036 650.79 228.788 652.08 222.641 654.609C222.169 654.795 221.596 654.999 221.007 655.186C220.771 654.032 220.552 652.844 220.333 651.639C220.316 651.554 220.3 651.452 220.283 651.367L224.847 644.885L225.285 644.528C230.27 641.779 235.979 640.337 241.823 640.337C252.198 640.337 262.37 644.783 269.881 652.589L271.953 655.016L276.23 660.735L277.392 662.737L280.239 678.978C273.974 661.634 259.305 650.79 241.234 650.79H241.2ZM331.471 655.339C330.713 656.289 330.022 657.239 329.349 658.172C328.187 659.785 326.721 661.77 325.812 662.313C325.812 662.313 325.66 662.398 325.357 662.5C325.357 662.466 325.357 662.432 325.357 662.398C325.745 653.472 325.273 643.307 319.665 633.871C321.972 632.531 324.38 631.258 326.89 629.934C327.749 629.476 328.625 629.018 329.483 628.56C333.61 638.487 335.445 646.938 331.488 655.372L331.471 655.339ZM362.324 561.035C340.902 589.969 312.608 609.264 278.251 618.394C277.78 618.513 276.971 618.666 275.843 618.666C274.327 618.666 272.761 618.377 271.616 617.919C260.719 613.405 250.614 611.216 240.762 611.216C230.236 611.216 219.946 613.829 210.212 618.988C209.908 619.158 208.982 619.413 207.837 619.413C207.13 619.413 206.641 619.311 206.473 619.243C198.22 616.409 189.85 613.066 181.783 609.824C178.853 608.653 175.922 607.482 172.975 606.329L118.981 575.443L114.871 577.7L103.924 583.792L134.542 611.606L130.635 614.474C129.928 612.081 128.665 609.841 126.425 608.161C124.32 606.583 121.692 605.785 118.593 605.785C114.939 605.785 110.931 606.922 108.118 608.755C107.326 609.264 106.552 609.79 105.76 610.3C106.501 607.873 106.872 605.497 107.209 603.308C107.394 602.086 107.579 600.949 107.798 599.931L110.021 589.816L99.7309 589.613C98.7036 589.596 97.5079 589.477 96.2279 589.341C94.5606 589.172 92.6743 588.968 90.7376 588.968C88.1777 588.968 85.9377 589.307 83.8999 590.003C73.9634 593.38 64.01 596.944 54.1914 600.525C59.7323 595.569 65.29 590.614 70.8308 585.676C82.0136 575.714 93.5669 565.413 104.884 555.163C122.989 568.332 145.085 575.562 167.215 575.562C187.071 575.562 205.866 569.707 221.563 558.659C221.9 558.422 222.792 558.048 223.533 557.743C224.224 557.454 224.931 557.149 225.605 556.826L227.036 556.148L259.035 522.021L254.016 516.217L247.448 508.614L221.849 525.703L221.63 525.873C211.677 533.509 203.845 538.94 193.825 539.245L192.781 539.279L189.833 540.128C186.566 540.773 183.366 541.604 180.267 542.402C174.288 543.946 168.647 545.388 163.476 545.388C163.038 545.388 162.6 545.388 162.163 545.355C138.029 544.116 118.577 533.034 102.712 511.465C102.038 510.549 101.567 509.853 101.247 509.327C101.348 509.259 101.466 509.191 101.584 509.123C104.16 507.613 106.501 505.984 108.792 504.388C109.752 503.727 110.695 503.065 111.672 502.403L114.349 500.604L111.84 496.497L114.838 500.214L124.993 491.932L158.087 462.642L170.145 451.238L174.794 448.557L190.035 416.839L186.987 412.715L181.177 404.875L174.474 409.678C173.312 410.509 172.15 411.375 171.004 412.24C168.495 414.124 166.104 415.923 163.729 417.246C129.406 390.892 108.825 359.921 100.876 322.655C100.927 322.281 100.96 321.925 100.994 321.551L101.095 320.143L100.741 318.785C95.2511 297.98 95.7227 275.291 102.19 249.428C115.511 196.108 146.601 152.952 197.21 117.519C233.15 92.3519 274.529 76.4338 320.473 70.087C309.391 80.9309 298.141 94.7956 291.27 112.614C290.647 114.243 290.04 115.856 289.468 117.485C279.582 106.03 266.867 99.8188 252.989 99.8188C241.975 99.8188 230.842 103.875 220.805 111.562C191.012 134.353 184.225 184.33 206.843 214.385C213.832 223.667 222.927 229.827 233.588 232.594C228.754 238.974 223.937 245.61 220.316 253.077C206.405 281.722 207.483 311.098 223.415 338.03C224.291 339.506 225.083 341.186 225.942 342.985C226.379 343.918 226.834 344.869 227.289 345.802L228.047 347.329L229.344 348.449C231.482 350.282 233.554 352.268 235.76 354.355C241.015 359.344 246.455 364.503 253.174 368.237C262.471 373.395 272.29 377.366 281.805 381.219C285.712 382.797 289.737 384.426 293.611 386.106L294.318 386.412L295.076 386.581C304.625 388.754 314.326 389.857 323.909 389.857C337.416 389.857 351.159 387.667 364.8 383.357C402.205 442.091 401.346 508.427 362.409 561.018L362.324 561.035ZM567.623 240.807C566.377 240.128 565.147 239.45 563.935 238.754C548.053 229.794 530.605 225.246 512.08 225.246C501.991 225.246 491.23 226.586 480.081 229.251C459.803 234.07 441.716 243.387 424.2 252.381C420.512 254.282 416.807 256.182 413.085 258.049C386.425 271.388 355.15 285.744 321.349 287.357C320.086 287.424 318.823 287.441 317.56 287.441C304.373 287.441 291.742 284.098 280.037 277.48C279.868 277.378 279.75 277.31 279.683 277.259C279.531 276.648 279.548 275.121 279.548 274.086C279.548 272.491 279.582 270.675 279.312 268.706L278.976 266.296L262.589 246.509L257.031 258.762C255.684 261.748 254.219 264.684 252.821 267.552C249.469 274.357 245.983 281.4 243.928 288.952C242.497 294.162 243.962 297.573 245.444 299.524C246.859 301.391 249.553 303.631 254.353 303.631C255.549 303.631 256.627 303.495 257.587 303.393C257.856 303.359 258.227 303.325 258.513 303.292L259.052 303.376C260.366 303.58 261.595 303.648 262.673 303.699C263.145 303.716 263.801 303.75 264.256 303.801C284.567 318.446 307.825 328.628 333.408 334.092L333.862 334.194L334.317 334.245C337.214 334.534 340.127 334.839 343.024 335.145C350.94 335.976 359.108 336.825 367.242 337.436C367.63 337.47 368.017 337.486 368.421 337.486C371.217 337.486 373.659 336.757 375.612 336.163C376.236 335.976 376.859 335.772 377.482 335.637V333.006L387.789 332.786C373.928 349.128 355.403 357.919 331.336 359.616C328.658 359.802 325.964 359.904 323.353 359.904C303.413 359.904 285.173 354.287 269.14 343.222C251.928 331.343 242.749 317.02 241.048 299.439C239.752 280.636 243.794 266.84 253.781 255.979L254.252 255.469L255.953 252.873L258.715 250.073L272.997 235.631L273.569 234.613C273.974 233.883 274.327 233.12 274.698 232.339C274.833 232.034 275.018 231.643 275.136 231.389C296.002 211.771 307.623 185.739 311.716 149.508C313.534 133.488 318.671 119.64 327.041 108.372L327.513 107.727L328.843 104.961L332.549 101.024C335.445 98.563 338.292 96.0005 341.054 93.5398C347.453 87.8378 353.483 82.4413 360.068 77.9102C370.055 71.0373 381.406 67.8469 395.789 67.8469C400.757 67.8469 406.129 68.2202 412.192 69.0178C453.151 74.3125 485.908 87.4984 512.332 109.339C513.747 110.51 515.178 112.275 516.677 114.159C517.553 115.262 518.446 116.348 519.355 117.4L521.915 115.126L519.625 117.722L522.976 121.099L524.643 122.779L526.344 124.51L528.13 126.309L530.033 128.227L530.184 128.363L531.397 129.398C533.603 132.877 535.877 136.339 538.083 139.682C543.607 148.065 548.811 155.99 553.19 164.424C561.762 180.902 566.495 200.401 567.64 223.99V240.79L567.623 240.807ZM378.711 325.692L377.414 326.948V325.506C377.836 325.573 378.273 325.641 378.711 325.692Z" fill="white"/>
<path d="M523.119 719.219C522.614 719.372 522.227 719.694 521.957 720.152C512.324 726.635 503.027 725.583 493.984 718.846L493.647 719.219L494.034 718.897C491.676 715.91 489.302 712.906 486.944 709.919C486.792 709.495 486.506 709.224 486.068 709.122C482.952 707.425 479.82 705.728 476.704 704.048L476.384 703.64L475.896 703.793C474.498 703.437 473.1 703.097 471.702 702.741C468.873 702.707 466.043 702.69 463.214 702.656C461.294 703.046 459.374 703.42 457.454 703.81C456.578 703.963 455.703 704.133 454.844 704.285C448.629 705.813 442.432 707.34 436.217 708.884C432.125 708.85 428.049 708.816 423.956 708.782C422.457 708.392 420.975 708.019 419.477 707.628C418.938 707.476 418.415 707.323 417.877 707.187C415.148 705.999 412.42 704.811 409.708 703.623L409.809 703.725C409.102 703.284 408.378 702.86 407.671 702.419C404.403 700.094 401.119 697.786 397.852 695.461C395.056 693.475 392.277 691.473 389.482 689.487C384.513 686.891 379.545 684.277 374.577 681.681C369.912 679.916 365.331 677.863 360.565 676.471C352.161 674.027 344.481 673.111 336.515 679.814C329.172 686.008 319.252 687.654 310.646 681.613C304.179 677.082 303.085 679.322 301.956 685.618C299.767 697.786 292.727 706.05 282.521 705.354C272.298 704.642 268.189 709.699 264.467 717.352C262.513 721.357 259.869 725.04 257.545 728.875C257.057 729.588 256.551 730.301 256.063 731.013C255.591 731.641 255.137 732.269 254.665 732.897C254.412 733.813 254.143 734.73 253.89 735.646L253.688 735.867L253.368 735.392C253.368 735.392 252.813 735.51 252.796 735.527C252.156 736.325 251.533 737.123 250.893 737.92L250.96 737.835C248.669 740.652 246.379 743.469 244.072 746.286C244.072 746.286 244.173 746.185 244.173 746.202C243.617 746.847 243.061 747.474 242.506 748.119L242.556 748.051C223.424 763.902 204.292 779.752 185.177 795.602C182.449 796.196 179.72 796.807 176.992 797.401C175.88 797.299 174.769 797.18 173.64 797.078L173.051 797.01C172.125 796.688 171.198 796.366 170.289 796.043C169.767 795.907 169.245 795.789 168.723 795.653L145.212 774.813C145.279 774.27 145.077 773.863 144.589 773.609C144.185 773.032 143.763 772.438 143.359 771.861C143.006 771.233 142.669 770.622 142.315 769.994C138.745 761.509 135.191 753.041 131.621 744.556C131.469 743.503 131.318 742.434 131.166 741.382C130.627 737.445 130.088 733.491 129.549 729.554V726.126C129.549 725.566 129.549 725.023 129.549 724.463C129.718 722.206 129.886 719.966 130.038 717.709C133.339 705.253 140.715 698.108 154.037 696.564C162.289 695.613 170.474 692.864 178.339 689.996C188.427 686.297 198.162 681.647 209.243 676.912C196.309 665.424 196.747 653.001 200.924 641.105C186.491 634.741 172.748 628.513 158.803 622.76C156.984 622.014 153.599 623.049 151.881 624.423C141.759 632.484 131.941 640.919 121.987 649.2C117.676 652.781 112.775 658.008 107.419 653.154C104.051 650.099 103.394 644.041 101.458 639.188C93.8957 644.652 84.5486 651.287 75.3363 658.092C70.6375 661.554 65.8713 663.574 60.9704 658.924C56.1369 654.359 57.4 649.505 60.6673 644.448C66.966 634.724 73.029 624.831 80.3045 613.223C62.4525 619.706 46.7225 625.425 30.9588 631.127C20.5002 634.911 14.1004 633.536 10.3616 626.392C5.93223 617.89 10.2773 612.137 16.4919 606.639C41.1479 584.815 65.5682 562.703 90.2916 540.964C94.4514 537.298 95.5966 535.058 91.3863 530.459C86.9064 525.572 83.1844 519.836 79.833 514.049C73.9047 503.765 74.2584 503.188 83.8244 496.536C109.036 479.006 132.715 459.643 153.582 437.632C57.1306 355.004 55.918 261.651 121.011 160.356C118.956 160.679 116.766 161.052 114.577 161.374C92.8009 164.65 74.41 158.15 60.802 140.688C46.874 122.801 44.651 102.674 52.6675 81.4956C55.9011 72.9426 58.9326 72.0771 66.545 76.8458C69.408 78.6276 72.2374 80.4435 76.4815 83.1247C67.4713 59.3155 67.0334 37.2882 77.0373 15.6512C78.4183 12.6644 81.3824 8.82918 83.9928 8.50674C86.2496 8.23522 89.9884 11.8838 91.4705 14.6669C122.055 72.1959 184.402 87.9273 244.678 67.8685C311.606 45.5866 378.77 38.7986 446.743 54.7506C557.089 80.6471 600.119 176.919 586.831 264.621C585.046 276.449 581.694 277.637 572.398 269.848C546.041 247.787 516.147 240.744 483.458 250.756C466.161 256.068 449.64 264.095 433.051 271.511C411.376 281.201 389.97 291.502 368.581 301.48C382.998 307.369 398.02 306.164 413.211 302.566C416.462 301.803 422.02 301.413 423.097 303.093C424.748 305.672 424.394 310.509 423.266 313.818C415.317 336.846 400.513 354.41 379.545 367.189C381.28 370.091 382.829 372.721 384.396 375.335C432.899 455.57 418.853 544.816 348.22 605.722C346.586 607.131 344.296 610.542 344.784 611.238C346.654 613.885 349.264 617.177 352.11 617.771C371.545 621.793 388.522 630.567 403.662 643.243C411.544 649.845 417.27 650.133 424.512 642.683C428.285 638.814 431.333 633.638 433.101 628.479C438.895 611.679 438.608 611.577 456.511 612.256C457.067 612.273 457.639 612.324 458.195 612.29C465.437 611.798 468.805 615.327 467.93 622.455C466.431 634.673 464.629 646.858 462.945 659.145C490.127 659.111 514.497 666.577 528.424 694.086C528.677 695.155 528.93 696.241 529.199 697.31C529.199 700.688 529.233 704.048 529.25 707.425C529.081 708.341 528.913 709.241 528.745 710.157C526.892 713.178 525.039 716.181 523.187 719.202L523.119 719.219ZM530.597 116.811L530.698 116.912C530.109 116.318 529.502 115.708 528.913 115.114L529.014 115.215C528.424 114.621 527.835 114.011 527.246 113.417L527.33 113.501C526.74 112.907 526.151 112.313 525.561 111.72L525.646 111.787C523.001 108.767 520.694 105.305 517.646 102.776C487.264 77.6603 451.795 65.5775 413.245 60.5883C392.564 57.924 372.825 58.8404 355.293 70.9062C345.121 77.9149 336.212 86.8073 326.73 94.8512L326.814 94.7663C325.181 96.4973 323.564 98.2282 321.93 99.9592L321.728 100.265C321.24 101.283 320.751 102.284 320.263 103.302C310.293 116.743 305.156 132.27 303.32 148.562C299.986 178.039 291.312 204.733 269.048 225.488C267.717 226.727 267.128 228.78 266.202 230.46C261.671 235.042 257.141 239.607 252.61 244.189L252.711 244.104C251.566 245.275 250.404 246.446 249.259 247.617L249.377 247.515C248.787 248.415 248.198 249.314 247.609 250.23C234.556 264.417 231.356 281.608 232.653 300.157C234.742 322.303 246.834 338.136 264.383 350.236C284.727 364.27 307.48 369.819 331.934 368.088C358.527 366.205 381.044 355.989 397.532 334.131C399.166 331.365 400.799 328.599 402.433 325.85C399.654 325.29 396.875 324.713 394.079 324.204C393.541 324.102 392.968 324.204 392.412 324.22C395.511 321.217 396.724 318.943 390.728 318.468C376.463 317.331 362.434 315.277 350.359 306.47C349.601 305.927 348.237 306.011 347.193 306.13C336.515 307.301 325.854 308.523 313.392 309.949C321.476 313.275 328.077 316.906 335.134 318.722C348.506 322.167 362.131 324.56 375.655 327.394C373.061 327.971 370.417 329.21 367.874 329.023C356.961 328.192 346.064 326.936 335.168 325.85C310.95 320.674 288.651 311.136 268.509 296.474C266.505 295.015 263.103 295.473 260.358 295.049C257.377 293.946 250.269 297.832 252.072 291.264C254.732 281.54 260.105 272.546 264.719 262.347C267.178 265.317 269.081 267.608 270.985 269.916C271.709 275.211 269.418 281.269 275.919 284.934C290.218 292.995 305.661 296.644 321.745 295.88C355.95 294.251 386.77 280.726 416.816 265.69C438.053 255.067 458.583 243.137 481.992 237.554C509.04 231.122 535.06 232.259 559.783 246.208C564.735 249.009 569.754 251.656 576.002 255.067V223.859C574.941 201.746 570.815 180.211 560.592 160.56C553.956 147.798 545.434 136.038 537.755 123.819C537.031 123.208 536.323 122.597 535.599 121.987L535.717 122.088C535.127 121.477 534.521 120.883 533.932 120.273L534.033 120.391C533.443 119.78 532.837 119.186 532.247 118.576L532.365 118.677C531.776 118.066 531.187 117.472 530.58 116.862L530.597 116.811ZM512.492 691.795L512.56 691.744C511.937 691.218 511.313 690.675 510.69 690.149H510.758C510.151 689.606 509.528 689.08 508.922 688.537H508.972C508.383 687.977 507.794 687.434 507.204 686.874L507.356 686.687C506.21 685.567 505.065 684.464 503.937 683.344L503.853 683.463C488.257 670.531 470.49 669.259 451.678 673.671C442.246 672.839 442.095 671.007 445.429 662.165C449.623 651.067 451.93 639.272 455.063 627.767C452.621 623.066 449.791 622.913 446.524 627.274C444.065 633.265 441.606 639.255 439.131 645.263C438.558 646.027 437.969 646.807 437.396 647.571C436.874 648.199 436.352 648.81 435.83 649.438L435.863 649.319C435.324 649.964 434.785 650.592 434.247 651.236L434.179 651.067C430.525 653.341 426.752 655.479 423.283 658.024C422.66 658.483 423.283 660.638 423.3 661.995C424.125 662.98 424.967 663.981 425.792 664.965C424.361 665.406 422.542 666.645 421.565 666.17C412.824 661.894 404.218 657.295 395.578 652.798C394.719 652.17 393.877 651.542 393.018 650.897H392.917C392.328 650.388 391.738 649.879 391.149 649.387L390.812 649.743L391.132 649.353C390.526 648.878 389.92 648.402 389.33 647.91L389.212 647.825C388.168 647.164 387.107 646.502 386.063 645.857L386.181 645.959C385.558 645.433 384.951 644.923 384.328 644.397H384.261C374.762 637.508 364.354 633.044 352.481 630.838C353.154 634.945 353.592 637.711 354.047 640.46C353.542 646.62 352.733 652.764 352.733 658.924C352.733 660.349 355.277 662.81 356.91 663.065C373.651 665.729 388.993 672.313 401.759 683.039C417.439 696.207 433.354 697.921 452.57 692.169C470.591 686.772 488.241 689.131 500.535 706.576C503.651 711.005 507.945 714.569 513.183 710.259C518.336 706.033 519.246 700.552 514.177 695.155C514.143 694.663 514.042 694.171 513.89 693.696C513.402 693.068 512.93 692.423 512.442 691.795H512.492ZM218.86 683.429C218.287 684.04 217.715 684.651 217.159 685.245L216.974 685.007C201.698 692.287 186.423 699.568 170.963 706.933C171.704 707.594 173.253 708.969 174.819 710.361C178.508 715.621 182.516 720.661 185.749 726.194C188.09 730.216 190.263 729.961 193.749 727.993C198.532 725.277 203.585 723.071 208.536 720.645C208.738 720.831 208.957 721.035 209.159 721.239C203.517 726.075 194.861 729.978 193.059 735.969C191.122 742.366 195.669 750.75 197.37 758.284V770.673C199.93 769.604 201.042 769.4 201.85 768.789C226.489 749.884 246.312 726.754 260.812 699.177C262.328 696.292 262.412 691.982 261.654 688.673C258.892 676.726 250.994 671.601 237.15 671.974C231.609 675.266 226.051 678.558 220.51 681.851L220.628 681.783C220.039 682.394 219.449 682.988 218.86 683.599V683.446V683.429ZM278.344 649.539C277.805 648.895 277.25 648.267 276.711 647.622V647.554C261.856 631.381 238.565 627.156 220.645 637.406L220.224 637.728C219.685 638.152 219.163 638.594 218.624 639.018C216.182 642.48 213.74 645.959 211.298 649.421C212.359 654.596 212.999 659.942 214.986 664.728C215.273 665.406 222.296 663.913 225.816 662.471C247.878 653.392 269.132 664.236 274.016 688.028C275.616 695.851 279.793 694.952 284.02 692.338C286.63 690.726 287.792 686.721 289.594 683.785L285.384 659.772C284.71 658.618 284.054 657.464 283.38 656.31L283.346 656.209C281.662 653.952 279.978 651.712 278.294 649.455L278.344 649.539ZM109.592 493.549C108.699 494.143 107.807 494.754 106.931 495.348C103.731 497.503 100.632 499.828 97.3145 501.78C89.8874 506.124 91.4199 510.418 95.8998 516.51C112.405 538.928 134.046 552.402 161.683 553.81C171.586 554.32 181.724 550.315 191.745 548.363C192.503 548.142 193.278 547.922 194.036 547.701C207.037 547.311 216.923 540.082 226.691 532.598C233.091 528.321 239.508 524.045 245.907 519.768C246.48 520.43 247.053 521.109 247.642 521.771C239.087 530.884 230.531 540.014 221.992 549.144C220.224 549.975 218.304 550.586 216.721 551.689C183.779 574.904 139.587 570.424 108.952 547.65C105.062 544.748 103.159 545.291 99.8912 548.244C80.9782 565.401 61.8125 582.286 42.7984 599.341C35.4386 605.96 28.281 612.799 21.0223 619.536C23.7001 620.385 25.5526 620.011 27.3042 619.366C47.0425 612.205 66.6965 604.772 86.5696 598.018C90.4431 596.694 95.2093 597.984 99.5544 598.069C98.6618 602.142 98.5608 606.639 96.7082 610.219C91.8578 619.655 86.2327 628.683 80.9277 637.864C80.7087 637.932 80.4729 637.949 80.2877 638.068C80.1866 638.152 80.1866 638.39 80.1529 638.56C80.4224 638.339 80.6919 638.118 80.9445 637.898C91.4873 630.499 101.895 622.879 112.674 615.854C114.981 614.343 119.613 613.613 121.381 614.937C123.149 616.261 123.116 620.639 123.082 623.66C123.048 626.087 121.836 628.496 121.145 630.923C120.775 631.585 120.387 632.247 120.084 632.926C120.051 632.993 120.438 633.282 120.64 633.452C121.011 632.773 121.381 632.111 121.752 631.432C129.516 625.747 137.279 620.062 147.907 612.29C137.061 602.447 127.697 593.945 118.333 585.443C118.518 585.341 118.703 585.239 118.889 585.137L169.346 613.987C180.798 618.467 192.132 623.253 203.753 627.258C206.818 628.31 211.264 627.987 214.127 626.477C232.232 616.906 250.118 618.178 268.425 625.747C271.978 627.207 276.694 627.563 280.399 626.579C316.928 616.889 346.536 596.558 369.087 566.097C411.931 508.228 409.506 437.072 371.074 377.609C369.844 375.708 365.381 374.249 363.192 374.961C341.332 382.055 319.286 383.413 296.87 378.322C283.582 372.603 269.772 367.817 257.174 360.825C248.804 356.192 242.169 348.403 234.742 342.022C233.361 339.256 232.148 336.371 230.565 333.724C215.694 308.591 215.29 282.576 227.786 256.849C233.192 245.716 241.849 236.179 249.107 225.793C235.045 226.319 222.616 221.466 213.454 209.298C193.699 183.062 199.728 138.295 225.799 118.355C247.491 101.758 272.366 106.085 287.506 129.08C288.837 131.1 290.285 133.017 292.036 135.495C294.546 128.333 296.617 121.97 299.009 115.725C306.84 95.3942 321.055 80.0192 337.239 66.2055C340.759 64.3387 344.279 62.489 350.089 59.4174C345.087 59.4174 342.915 59.2816 340.776 59.4343C286.849 63.3884 236.864 79.3743 192.301 110.583C143.797 144.54 108.598 188.679 93.9293 247.396C87.8495 271.698 85.997 296.338 92.5146 321.013C92.4641 321.845 92.1946 322.727 92.3631 323.525C101.356 366.901 126.08 399.67 160.656 425.634C162.07 426.687 165.742 425.838 167.729 424.718C171.805 422.427 175.459 419.372 179.282 416.623C179.569 417.014 179.855 417.404 180.158 417.794C176.2 426.042 172.243 434.272 168.285 442.52C167.207 443.148 166.129 443.759 165.034 444.387L165.068 444.353C160.858 448.324 156.664 452.312 152.454 456.283C141.456 466.007 130.476 475.731 119.478 485.454C116.143 488.187 112.792 490.902 109.457 493.634L109.575 493.566L109.592 493.549ZM298.369 640.8C295.826 640.257 293.316 639.595 290.74 639.34C290.487 639.323 289.999 641.801 289.611 643.108C292.474 647.588 295.337 652.068 298.184 656.531L301.939 666.102C302.832 665.983 303.741 665.865 304.634 665.729V653.086C302.546 648.979 300.457 644.89 298.369 640.783V640.8ZM336.818 624.237C335.201 621.097 335.218 615.616 329.122 619.044C323.278 622.336 317.198 625.204 311.59 628.836C310.276 629.684 309.316 633.808 310.141 634.86C316.575 642.972 317.349 652.221 316.945 661.995C316.81 665.135 317.417 670.956 318.191 671.041C322.099 671.482 326.781 671.516 330.031 669.632C333.568 667.579 335.808 663.285 338.62 659.959C344.868 647.707 341.82 635.912 336.852 624.22L336.818 624.237ZM146.694 130.472C148.412 129.369 150.146 128.265 154.104 125.737C130.745 128.69 112.59 122.377 95.8493 110.481C86.5191 103.845 76.6162 98.0246 67.0502 91.6947C63.143 89.1152 61.5093 89.6752 62.2504 94.5796C61.7788 94.953 61.5767 95.4451 61.6441 96.0391C61.4083 97.9058 61.1557 99.7895 60.9199 101.656L61.0209 104.965C59.4378 134.443 88.0853 156.742 117.474 148.172C128.455 144.964 140.025 141.485 146.694 130.472ZM84.7844 35.3536C83.976 41.8023 82.275 48.2679 82.5108 54.6827C84.0939 97.5834 124.682 127.4 170.137 108.224C179.148 102.607 188.175 96.9894 197.185 91.3892C199.206 90.4898 201.227 89.5904 203.248 88.7079C153.734 88.4194 113.213 71.6868 84.3633 29.7874C84.4981 31.6541 84.6328 33.5208 84.7675 35.3876L84.7844 35.3536ZM271.776 128.333C272.147 128.198 272.517 128.062 272.888 127.943C272.719 127.773 272.534 127.604 272.366 127.434C260.071 117.048 246.884 116.505 233.916 125.839C212.14 141.502 205.555 178.345 220.544 200.609C227.466 210.893 236.729 215.475 247.44 213.999C244.105 210.876 240.198 208.076 237.335 204.428C221.858 184.624 227.163 146.576 247.288 131.71C254.817 126.161 262.917 124.328 271.776 128.35V128.333ZM142.82 720.662C138.374 739.074 154.778 774.898 171.198 782.671C178.289 786.031 184.15 783.163 184.857 774.678C185.446 767.499 185.278 759.778 183.274 752.939C178.508 736.664 172.563 720.695 155.805 712.465C147.25 709.071 144.808 710.615 142.82 720.662ZM260.947 157.624C266.454 162.104 269.637 166.279 273.561 167.195C275.363 167.619 280.332 161.867 280.837 158.472C281.662 152.804 278.193 147.357 271.827 148.121C268.61 148.494 265.898 153.11 260.964 157.641L260.947 157.624Z" fill="#162B6E"/>
<path d="M337.269 66.2032C321.068 80 306.853 95.375 299.039 115.722C296.631 121.967 294.576 128.331 292.066 135.493C290.315 133.015 288.85 131.08 287.536 129.078C272.396 106.1 247.504 101.773 225.829 118.353C199.758 138.293 193.745 183.043 213.484 209.296C222.646 221.464 235.075 226.317 249.137 225.791C241.862 236.177 233.222 245.714 227.816 256.847C215.319 282.573 215.724 308.589 230.595 333.722C232.161 336.386 233.39 339.254 234.755 342.02C234.67 342.58 234.384 343.208 234.536 343.683C245.567 375.57 264.665 400.347 295.839 414.619C298.635 415.891 302.559 418.301 302.946 420.66C305.203 434.694 307.948 448.881 307.881 463.001C307.813 479.105 305.085 495.21 303.3 511.298C302.34 520.021 297.506 524.891 288.951 523.958C282.585 523.262 276.488 520.037 267.242 516.915C271.621 521.531 274.551 524.552 277.397 527.657C279.132 529.541 280.749 531.543 282.416 533.495C279.957 534.394 277.347 536.295 275.056 535.956C271.25 535.412 267.646 533.444 263.958 532.069C266.585 543.066 274.854 547.071 284.319 542.167C286.239 541.182 288.648 541.182 290.837 540.724C290.248 543.066 290.231 545.798 288.951 547.682C283.814 555.285 278.273 562.633 272.901 570.066C271.149 571.695 269.415 573.324 267.663 574.936C267.107 575.496 266.551 576.056 265.996 576.616C263.773 577.617 261.23 578.211 259.394 579.688C243.276 592.738 207.387 594.723 188.693 582.98C192.364 580.18 196.07 577.787 199.253 574.834C207.64 567.028 218.385 561.292 221.972 549.158C230.527 540.045 239.083 530.915 247.638 521.802C247.066 521.141 246.493 520.462 245.904 519.8C239.504 524.076 233.087 528.353 226.688 532.629C223.723 531.951 220.759 531.272 217.778 530.61C213.585 525.349 213.837 519.613 216.397 513.911C218.233 509.821 221.029 506.156 222.747 502.032C223.639 499.894 223.134 497.145 223.252 494.684C221.113 495.397 218.62 495.668 216.886 496.941C213.736 499.249 211.261 502.507 208.061 504.696C205.939 506.156 203.025 506.461 200.465 507.293C199.893 504.442 198.293 501.336 198.95 498.808C200.499 492.868 203.362 487.285 205.198 481.413C205.922 479.088 205.383 476.373 205.417 473.828C203.042 474.727 200.297 475.134 198.36 476.611C192.415 481.193 186.925 486.369 180.929 490.849C179.565 491.867 176.079 491.833 174.933 490.764C173.704 489.627 173.182 486.301 173.923 484.672C175.893 480.378 178.42 476.254 181.3 472.504C183.859 469.195 187.531 466.734 190.023 463.391C191.202 461.796 190.765 458.962 191.051 456.705C189.03 456.79 186.807 456.348 185.005 457.027C179.295 459.233 173.923 462.746 168.045 463.951C165.031 464.562 161.241 461.355 157.806 459.861C160.214 454.702 162.605 449.543 165.014 444.367L164.98 444.401C166.058 443.773 167.136 443.162 168.231 442.535C172.188 434.287 176.146 426.056 180.104 417.809C179.818 417.419 179.531 417.028 179.228 416.638C175.405 419.387 171.75 422.442 167.675 424.733C165.687 425.853 162.016 426.701 160.601 425.649C126.026 399.685 101.302 366.915 92.3088 323.539C92.1404 322.742 92.393 321.876 92.4604 321.028C88.8058 294.86 92.292 269.354 99.7696 244.306C100.864 240.64 103.273 235.973 106.355 234.531C120.299 228.014 122.421 224.501 119.811 209.092C119.188 205.427 118.43 200.556 120.198 197.926C129.63 183.976 138.791 169.62 149.991 157.164C189.72 112.973 239.47 85.4305 296.681 71.5489C309.851 68.3585 323.678 67.9172 337.219 66.2032H337.269ZM143.979 371.446C144.922 378.472 152.618 382.138 162.656 379.558C166.294 378.625 170.538 378.574 174.209 379.456C182.63 381.476 190.057 377.437 191.186 369.715C187.986 370.835 184.702 372.719 181.316 372.94C178.975 373.092 176.466 370.988 174.041 369.902C175.506 368.188 177.039 366.525 178.403 364.726C181.097 361.196 183.691 357.616 186.099 354.34C179.413 356.937 173.771 360.738 168.045 360.891C162.151 361.061 156.138 357.684 148.021 355.189C152.416 359.533 155.903 362.995 159.422 366.423C160.534 367.509 161.73 368.527 162.892 369.597C161.629 370.937 160.315 373.483 159.119 373.432C154.117 373.211 149.132 372.21 143.979 371.463V371.446ZM252.034 465.241C253.533 469.347 253.685 471.469 254.796 472.538C260.775 478.257 266.535 484.383 273.238 489.101C283.124 496.059 295.148 489.797 296.748 477.578C286.357 487.302 281.355 487.794 275.899 480.514C279.351 475.508 282.635 470.756 285.936 465.987C285.33 465.326 284.724 464.664 284.134 464.019C275.006 476.56 264.665 474.982 252.051 465.224L252.034 465.241ZM199.337 427.77C201.695 437.647 209.475 442.535 218.166 440.481C226.57 438.496 230.679 433.456 229.416 426.735C218.991 436.323 214.764 436.544 199.337 427.77ZM214.898 391.878C216.869 400.567 223.083 404.691 231.353 403.588C240.211 402.4 245.028 397.241 244.556 388.926C235.715 398.904 225.812 399.396 214.898 391.895V391.878Z" fill="#24A5EE"/>
<path d="M335.16 325.8C346.057 326.903 356.953 328.142 367.866 328.974C370.41 329.16 373.054 327.921 375.647 327.344C381.239 326.292 386.813 325.24 392.405 324.188C392.96 324.188 393.533 324.069 394.072 324.171C396.868 324.697 399.646 325.274 402.425 325.817C400.792 328.583 399.158 331.349 397.524 334.099C394.442 335.253 391.31 336.288 388.278 337.56C380.06 341.005 372.144 345.655 363.606 347.827C337.097 354.599 310.824 351.849 285.427 342.397C268.047 335.931 252.165 326.615 240.797 311.104C238.102 307.421 235.357 303.79 232.646 300.124C231.349 281.576 234.532 264.385 247.601 250.198C248.19 249.298 248.78 248.399 249.369 247.483L249.251 247.584C250.397 246.413 251.559 245.243 252.704 244.072L252.603 244.156C257.133 239.574 261.664 235.01 266.194 230.428C267.12 228.747 267.71 226.711 269.04 225.455C291.305 204.684 299.978 178.007 303.313 148.529C305.149 132.238 310.285 116.71 320.255 103.27C320.744 102.252 321.232 101.25 321.721 100.232L321.923 99.9266C323.556 98.1957 325.173 96.4647 326.807 94.7338L326.723 94.8186C328.356 93.8343 330.04 92.918 331.64 91.8658C341.661 85.3153 351.547 78.5272 361.804 72.384C363.505 71.3658 367.951 72.1634 369.197 73.6907C380.077 87.1311 400.354 85.8074 409.431 71.0264C410.796 68.8033 414.366 66.2408 416.589 66.5123C444.849 69.9063 471.93 77.4751 496.62 92.1373C506.641 98.0939 516.005 105.17 525.655 111.738L525.571 111.67C526.16 112.264 526.75 112.858 527.339 113.452L527.255 113.367C527.844 113.961 528.434 114.572 529.023 115.166L528.922 115.064C529.512 115.658 530.118 116.269 530.707 116.863L530.606 116.761C531.196 117.372 531.785 117.966 532.392 118.577L532.274 118.475C532.863 119.086 533.469 119.68 534.059 120.291L533.958 120.172C534.547 120.783 535.154 121.377 535.743 121.988L535.625 121.886C536.349 122.497 537.057 123.108 537.781 123.719C545.461 135.92 553.982 147.698 560.618 160.459C570.858 180.128 574.984 201.646 576.028 223.758C570.066 211.913 563.161 200.815 552.046 193.025C524.644 173.798 489.883 179.958 461.927 198.846C439.999 213.661 418.644 229.409 396.042 243.07C365.189 261.721 331.388 271.478 295.128 271.241C287.078 271.19 279.027 270.308 270.977 269.815C269.074 267.507 267.171 265.216 264.712 262.247C260.081 272.446 254.725 281.423 252.064 291.164C250.262 297.731 257.369 293.845 260.35 294.948C279.213 312.394 301.814 322.016 326.605 326.852C329.282 327.378 332.297 326.156 335.16 325.749V325.8ZM426.778 75.5914C423.056 78.6121 420.648 80.5806 418.223 82.5322C421.675 84.8232 424.892 88.2511 428.664 89.0148C431.022 89.5069 434.205 86.028 437.001 84.348C433.919 81.7176 430.837 79.0872 426.778 75.5914Z" fill="#5C6A7A"/>
<path d="M296.858 378.328C319.275 383.419 341.303 382.061 363.18 374.968C365.37 374.255 369.833 375.731 371.062 377.615C409.495 437.096 411.92 508.235 369.075 566.103C346.524 596.565 316.917 616.895 280.387 626.585C276.682 627.569 271.95 627.213 268.413 625.753C250.106 618.185 232.221 616.912 214.116 626.483C211.253 627.994 206.807 628.316 203.742 627.264C192.121 623.276 180.786 618.49 169.334 613.993C181.073 611.753 193.249 610.786 204.466 606.967C222.823 600.722 240.557 592.611 258.561 585.28C283.773 579.102 305.481 566.731 325.068 549.506C346.895 530.33 361.715 507.2 368.368 478.995C374.734 452.013 358.751 428.645 331.603 423.876C323.114 422.383 314.694 420.635 306.239 418.988C303.107 405.429 299.974 391.887 296.842 378.328H296.858Z" fill="#B4912C"/>
<path d="M270.988 269.833C279.039 270.325 287.089 271.207 295.139 271.258C331.399 271.479 365.2 261.738 396.054 243.088C418.655 229.41 440.027 213.678 461.938 198.863C489.895 179.976 524.656 173.815 552.057 193.043C563.172 200.832 570.077 211.93 576.039 223.776C576.039 233.601 576.039 243.427 576.039 254.984C569.791 251.573 564.755 248.926 559.821 246.125C535.097 232.176 509.077 231.022 482.03 237.471C458.62 243.037 438.09 254.984 416.853 265.607C386.808 280.643 355.988 294.151 321.782 295.797C305.699 296.561 290.255 292.912 275.957 284.851C269.439 281.186 271.746 275.128 271.022 269.833H270.988Z" fill="#455677"/>
<path d="M258.562 585.256C240.558 592.587 222.824 600.698 204.467 606.943C193.25 610.762 181.074 611.729 169.335 613.969C152.51 604.347 135.702 594.725 118.878 585.12C118.692 585.222 118.507 585.323 118.322 585.425C127.686 593.927 137.05 602.429 147.896 612.272C137.269 620.061 129.505 625.746 121.741 631.414L121.135 630.905C121.825 628.479 123.054 626.069 123.088 623.642C123.122 620.621 123.172 616.243 121.387 614.919C119.619 613.596 114.987 614.325 112.68 615.836C101.901 622.861 91.4934 630.481 80.9506 637.88V637.846C86.2388 628.648 91.8639 619.62 96.7143 610.202C98.5668 606.621 98.6679 602.124 99.5605 598.051C95.2154 597.966 90.466 596.677 86.5757 598C66.7026 604.754 47.0485 612.187 27.3102 619.349C25.5587 619.994 23.7061 620.367 21.0283 619.518C28.287 612.781 35.4447 605.942 42.8044 599.324C61.8017 582.269 80.9843 565.383 99.8973 548.227C103.165 545.257 105.068 544.731 108.958 547.633C139.576 570.407 183.785 574.887 216.727 551.672C218.31 550.568 220.23 549.957 221.999 549.109C218.411 561.243 207.666 566.979 199.279 574.785C196.096 577.755 192.391 580.131 188.72 582.931C207.414 594.674 243.32 592.688 259.421 579.638C261.256 578.162 263.799 577.568 266.022 576.567L266.208 576.77C263.665 579.588 261.122 582.422 258.595 585.239L258.562 585.256Z" fill="#207EC5"/>
<path d="M208.513 720.657C203.579 723.083 198.509 725.289 193.726 728.005C190.24 729.99 188.084 730.228 185.727 726.206C182.493 720.674 178.468 715.633 174.796 710.373C177.238 708.811 179.512 706.894 182.122 705.774C189.213 702.702 196.825 700.666 203.478 696.881C208.564 693.996 212.505 689.058 216.951 685.019L217.136 685.257C217.709 684.646 218.281 684.035 218.837 683.441L218.82 683.594C219.41 682.983 219.999 682.389 220.589 681.778L220.471 681.846C226.23 679.046 231.99 676.229 237.75 673.428C256.225 679.232 261.581 694.981 249.421 709.897C239.502 722.065 228.993 733.842 217.793 744.805C212.05 750.422 204.219 753.867 197.347 758.279C195.629 750.762 191.099 742.378 193.036 735.964C194.838 729.956 203.494 726.053 209.136 721.234C209.439 720.775 209.743 720.3 210.063 719.842C209.557 720.114 209.035 720.385 208.53 720.657H208.513ZM226.062 704.722C234.938 704.908 240.091 700.818 242.23 693.504C241.657 692.876 241.085 692.248 240.512 691.621C235.695 695.982 230.879 700.36 226.062 704.722Z" fill="#E5886D"/>
<path d="M217.79 530.574C220.754 531.253 223.735 531.915 226.699 532.594C216.931 540.095 207.045 547.307 194.043 547.714C194.515 542.708 195.003 537.702 195.475 532.696C195.677 532.441 195.862 532.186 196.064 531.915C195.845 532.153 195.626 532.39 195.407 532.628L188.401 535.139C187.323 535.513 186.246 535.886 185.168 536.259C184.612 536.497 184.039 536.718 183.484 536.955C182.827 537.193 182.17 537.43 181.53 537.668C177.151 538.143 172.772 538.601 168.377 539.076C162.735 535.547 166.255 531.423 167.467 527.316C168.04 525.347 167.855 523.141 168.023 521.054C165.951 520.901 163.796 520.29 161.825 520.664C156.655 521.665 151.586 523.107 144.125 524.94C147.207 520.324 148.958 518.152 150.188 515.725C151.097 513.927 152.293 511.262 151.569 509.955C150.895 508.7 147.931 508.326 145.961 508.258C142.171 508.14 138.365 508.496 134.576 508.666C135.721 504.83 136.866 500.995 138.011 497.16C138.18 496.617 138.365 496.091 138.55 495.565C139.527 493.834 140.504 492.103 141.75 489.914H124.69C124.083 489.574 123.477 489.235 122.871 488.878L122.551 489.15C133.447 480.41 144.361 471.688 155.274 462.948C160.731 465.595 166.204 468.26 171.846 470.992C168.427 478.391 161.219 486.571 168.41 495.87C174.793 504.135 182.709 498.212 189.951 496.21C192.561 516.285 193.454 517.1 210.009 514.537C212.434 519.985 207.752 528.962 217.857 530.574H217.79Z" fill="#F0BC19"/>
<path d="M296.856 378.324C299.988 391.883 303.121 405.425 306.253 418.984C307.449 427.911 308.763 436.803 309.84 445.746C313.512 476.157 310.531 505.787 299.045 534.331C297.95 536.808 296.856 539.269 295.761 541.747C295.475 541.916 295.34 542.154 295.357 542.476C295.138 542.986 294.936 543.478 294.717 543.987C287.694 552.913 280.671 561.823 273.648 570.749C273.412 570.511 273.159 570.274 272.89 570.053C278.279 562.62 283.803 555.272 288.94 547.669C290.203 545.786 290.237 543.053 290.826 540.712C288.637 541.17 286.212 541.17 284.309 542.154C274.844 547.058 266.574 543.053 263.947 532.057C267.635 533.431 271.24 535.4 275.046 535.943C277.336 536.265 279.947 534.365 282.405 533.482C280.738 531.531 279.121 529.545 277.387 527.645C274.54 524.539 271.61 521.518 267.231 516.902C276.494 520.025 282.574 523.249 288.94 523.945C297.496 524.878 302.312 520.008 303.289 511.285C305.074 495.197 307.803 479.093 307.87 462.988C307.937 448.869 305.192 434.682 302.935 420.647C302.548 418.272 298.624 415.879 295.828 414.606C264.638 400.334 245.556 375.558 234.525 343.671C234.357 343.195 234.66 342.567 234.744 342.007C242.154 348.388 248.807 356.178 257.177 360.81C269.774 367.802 283.584 372.588 296.872 378.307L296.856 378.324Z" fill="#207EC5"/>
<path d="M337.268 66.2154C323.744 67.9294 309.901 68.3536 296.731 71.561C239.52 85.4426 189.77 112.985 150.041 157.176C138.841 169.632 129.679 183.989 120.248 197.938C118.48 200.552 119.237 205.439 119.861 209.105C122.471 224.513 120.349 228.026 106.404 234.543C103.322 235.985 100.914 240.652 99.8191 244.318C92.3414 269.366 88.8552 294.872 92.5099 321.04C85.9922 296.365 87.8447 271.725 93.9245 247.423C108.594 188.706 143.792 144.584 192.296 110.609C236.859 79.4012 286.845 63.4323 340.771 59.4612C342.927 59.3085 345.099 59.4443 350.085 59.4443C344.274 62.5159 340.754 64.3656 337.234 66.2324L337.268 66.2154Z" fill="#91D1F7"/>
<path d="M232.648 300.125C235.377 303.79 238.122 307.422 240.799 311.104C252.151 326.632 268.032 335.932 285.43 342.397C310.827 351.85 337.099 354.599 363.608 347.828C372.147 345.656 380.045 340.989 388.281 337.561C391.312 336.288 394.445 335.253 397.527 334.099C381.039 355.956 358.522 366.173 331.929 368.056C307.475 369.787 284.722 364.238 264.378 350.204C246.829 338.104 234.753 322.271 232.648 300.125Z" fill="#455677"/>
<path d="M191.752 548.379C181.714 550.33 171.592 554.318 161.689 553.826C134.052 552.418 112.411 538.96 95.9063 516.526C91.4265 510.433 89.8939 506.14 97.321 501.795C100.639 499.844 103.738 497.519 106.938 495.364C107.83 494.77 108.723 494.159 109.598 493.565L109.481 493.633C112.596 492.462 115.712 491.274 118.845 490.103C123.644 491.325 128.444 492.564 133.244 493.785C131.964 495.941 130.735 498.113 129.404 500.217C123.745 509.144 125.362 513.861 135.198 517.679C136.343 518.121 137.758 519.733 137.825 520.904C138.583 532.002 139.038 532.545 150.608 531.086C154.734 530.56 156.704 531.29 156.89 536.075C157.176 543.678 161.925 547.632 169.133 546.359C176.274 545.103 183.129 542.252 190.101 540.114C190.657 542.863 191.213 545.612 191.768 548.362L191.752 548.379Z" fill="#207EC5"/>
<path d="M155.814 712.447C172.555 720.678 178.5 736.647 183.283 752.921C185.287 759.76 185.472 767.482 184.866 774.66C184.159 783.145 178.315 786.013 171.207 782.653C154.787 774.881 138.383 739.057 142.829 720.644C143.722 720.882 145.019 721.628 145.44 721.289C148.993 718.455 152.379 715.417 155.814 712.43V712.447Z" fill="#A36B70"/>
<path d="M514.212 695.179C519.265 700.575 518.372 706.056 513.219 710.282C507.964 714.592 503.686 711.029 500.571 706.599C488.276 689.137 470.626 686.795 452.606 692.192C433.39 697.945 417.491 696.231 401.795 683.062C389.029 672.337 373.686 665.752 356.946 663.088C355.312 662.833 352.769 660.373 352.769 658.947C352.769 652.787 353.578 646.644 354.083 640.5C354.42 640.806 354.79 640.976 355.245 641.01C353.898 653.415 363.902 651.31 370.706 653.262C382.478 660.016 394.25 666.787 406.022 673.541H405.955C406.325 673.983 406.696 674.441 407.066 674.899C416.649 682.196 427.445 685.743 439.268 683.316C448.732 681.382 457.928 678.056 467.241 675.357C469.599 675.408 471.974 675.459 474.332 675.51C483.965 681.127 493.615 686.371 500.638 695.891C502.676 698.657 510.12 703.358 514.229 695.195L514.212 695.179Z" fill="#A36B70"/>
<path d="M197.189 91.3865C188.179 97.0037 179.152 102.621 170.141 108.238C166.925 107.763 163.691 106.779 160.508 106.897C137.839 107.746 118.909 100.517 105.503 81.3741C98.5815 71.4975 92.4175 61.1966 93.3438 48.3162C105.638 57.9892 117.966 67.6283 130.193 77.3861C131.423 78.3704 132.467 79.9826 132.938 81.5099C135.65 90.538 141.915 90.7756 149.611 89.2144C154.597 88.1962 159.885 87.8737 164.971 88.2131C175.733 88.9428 186.461 90.3005 197.206 91.4035L197.189 91.3865Z" fill="#24A5EE"/>
<path d="M467.227 675.347C457.914 678.045 448.718 681.371 439.253 683.306C427.43 685.715 416.635 682.186 407.052 674.888C406.681 674.43 406.311 673.972 405.94 673.497L406.008 673.514C397.351 661.261 385.141 655.237 370.691 653.234C363.87 651.283 353.883 653.387 355.231 640.982C355.146 634.211 359.66 635.568 363.314 636.756C370.388 639.03 377.31 641.813 384.282 644.376C384.282 644.376 384.35 644.393 384.333 644.393C384.956 644.919 385.562 645.428 386.185 645.954L386.067 645.852C387.112 646.514 388.173 647.176 389.217 647.821L389.335 647.906C389.941 648.381 390.547 648.856 391.137 649.348L390.817 649.738L391.154 649.382C391.743 649.891 392.332 650.383 392.922 650.875H393.023C393.882 651.503 394.724 652.131 395.583 652.759C404.223 657.256 412.829 661.855 421.569 666.132C422.546 666.607 424.365 665.368 425.797 664.927C424.971 663.943 424.129 662.941 423.304 661.957C426.925 658.308 430.546 654.677 434.167 651.028L434.234 651.198C434.773 650.553 435.312 649.925 435.851 649.28L435.817 649.399C436.339 648.771 436.862 648.16 437.384 647.532C437.956 646.769 438.529 645.988 439.118 645.224C441.577 639.234 444.036 633.243 446.512 627.253C449.358 627.423 452.204 627.575 455.05 627.728C451.918 639.234 449.611 651.028 445.417 662.127C442.082 670.968 442.234 672.818 451.665 673.633C456.852 674.176 462.023 674.736 467.21 675.279L467.227 675.347Z" fill="#E5886D"/>
<path d="M525.648 111.801C515.981 105.234 506.634 98.157 496.613 92.2005C471.94 77.5382 444.842 69.9695 416.582 66.5755C414.359 66.304 410.788 68.8665 409.424 71.0896C400.347 85.8536 380.069 87.1773 369.19 73.7539C367.943 72.2096 363.497 71.429 361.796 72.4472C351.54 78.5904 341.654 85.3785 331.633 91.929C330.033 92.9811 328.349 93.8975 326.715 94.8818C336.197 86.8379 345.106 77.9455 355.279 70.9368C372.811 58.871 392.549 57.9546 413.23 60.6189C451.798 65.6082 487.249 77.691 517.631 102.807C520.679 105.335 522.987 108.797 525.631 111.818L525.648 111.801Z" fill="#ACB6C5"/>
<path d="M61.6487 96.0667C61.5814 95.4728 61.7835 94.9806 62.255 94.6073C68.0317 97.8656 73.9936 100.852 79.5682 104.433C98.296 116.482 116.064 130.703 139.979 130.516C139.288 131.653 138.884 133.35 137.89 133.859C121.605 142.073 100.435 143.991 83.3407 132.366C72.9831 125.323 67.4591 114.938 61.0088 104.993C60.9751 103.89 60.9414 102.787 60.9077 101.684C61.1435 99.8171 61.3961 97.9335 61.6319 96.0667H61.6487Z" fill="#24A5EE"/>
<path d="M93.3328 48.3177C92.4065 61.198 98.5705 71.499 105.492 81.3756C118.898 100.518 137.845 107.747 160.497 106.899C163.697 106.78 166.93 107.764 170.13 108.239C124.675 127.416 84.0868 97.5991 82.5037 54.6984C82.2679 48.3007 83.9689 41.8181 84.7773 35.3694C87.6235 39.6798 90.4697 44.0072 93.3159 48.3177H93.3328Z" fill="#207EC5"/>
<path d="M285.396 659.779C286.794 667.789 288.209 675.782 289.607 683.792C283.358 684.691 279.805 681.739 277.245 676.088C274.702 670.47 271.839 664.751 267.982 660.051C258.753 648.816 244.471 641.434 223.318 651.294C219.057 653.28 214.375 656.114 211.327 649.427C213.769 645.965 216.211 642.487 218.636 639.025C219.158 638.6 219.697 638.159 220.236 637.735C220.236 637.735 220.657 637.412 220.657 637.429C222.038 637.429 223.453 637.616 224.784 637.345C241.558 633.832 257.372 635.071 271.367 646.407C272.647 647.442 274.921 647.221 276.74 647.595V647.662C277.279 648.307 277.834 648.935 278.373 649.58L278.323 649.495C280.007 651.752 281.691 653.992 283.375 656.249C283.375 656.249 283.409 656.351 283.392 656.351C284.066 657.505 284.723 658.659 285.396 659.813V659.779Z" fill="#EFB04B"/>
<path d="M211.304 649.422C214.369 656.108 219.034 653.274 223.295 651.289C244.465 641.429 258.73 648.811 267.959 660.045C271.833 664.763 274.679 670.465 277.222 676.082C279.782 681.716 283.335 684.669 289.583 683.787C287.781 686.722 286.619 690.727 284.009 692.34C279.765 694.97 275.605 695.869 274.005 688.029C269.121 664.237 247.85 653.393 225.805 662.472C222.285 663.914 215.262 665.408 214.975 664.729C213.005 659.943 212.365 654.598 211.287 649.422H211.304Z" fill="#A36B70"/>
<path d="M61.0112 104.991C67.4447 114.936 72.9855 125.321 83.3431 132.364C100.437 144.006 121.607 142.088 137.893 133.857C138.887 133.348 139.291 131.651 139.981 130.514C142.221 130.514 144.461 130.497 146.701 130.48C140.032 141.494 128.462 144.973 117.481 148.18C88.0924 156.75 59.4449 134.451 61.028 104.974L61.0112 104.991Z" fill="#207EC5"/>
<path d="M392.399 324.186C386.808 325.238 381.233 326.29 375.642 327.342C362.118 324.508 348.493 322.098 335.121 318.67C328.064 316.855 321.462 313.24 313.378 309.897C325.841 308.488 336.502 307.249 347.179 306.079C348.224 305.96 349.588 305.875 350.346 306.418C362.404 315.225 376.433 317.279 390.715 318.416C396.727 318.891 395.498 321.165 392.399 324.169V324.186Z" fill="#455677"/>
<path d="M197.347 758.312C204.235 753.882 212.066 750.437 217.793 744.837C228.992 733.874 239.501 722.097 249.421 709.93C261.581 695.013 256.225 679.264 237.75 673.461C237.598 672.951 237.396 672.459 237.127 672.001C250.954 671.628 258.869 676.753 261.631 688.7C262.389 691.992 262.305 696.319 260.789 699.204C246.288 726.781 226.466 749.911 201.827 768.816C201.018 769.427 199.907 769.648 197.347 770.7V758.312Z" fill="#A36B70"/>
<path d="M93.3257 48.318C90.4795 44.0075 87.6332 39.6801 84.787 35.3697C84.6523 33.503 84.5175 31.6363 84.3828 29.7695C113.232 71.669 153.753 88.4186 203.267 88.6901C201.246 89.5895 199.225 90.4889 197.204 91.3714C186.459 90.2683 175.731 88.9107 164.97 88.181C159.883 87.8416 154.595 88.164 149.61 89.1822C141.914 90.7604 135.648 90.5059 132.937 81.4777C132.482 79.9504 131.438 78.3383 130.192 77.354C117.965 67.5961 105.637 57.957 93.3425 48.284L93.3257 48.318Z" fill="#91D1F7"/>
<path d="M336.829 624.256C341.797 635.949 344.845 647.726 338.597 659.995C326.437 659.554 318.151 651.765 318.404 641.04C318.606 632.096 326.741 624.697 336.829 624.273V624.256Z" fill="#EFB04B"/>
<path d="M336.829 624.244C326.74 624.668 318.623 632.067 318.404 641.011C318.151 651.753 326.437 659.525 338.597 659.966C335.784 663.292 333.544 667.586 330.008 669.639C326.774 671.523 322.075 671.489 318.168 671.048C317.393 670.963 316.804 665.142 316.922 662.003C317.343 652.228 316.551 642.962 310.118 634.867C309.293 633.815 310.253 629.691 311.566 628.843C317.174 625.211 323.271 622.326 329.098 619.051C335.178 615.623 335.161 621.105 336.795 624.244H336.829Z" fill="#A36B70"/>
<path d="M146.697 130.49C144.457 130.49 142.217 130.507 139.977 130.524C116.062 130.71 98.2943 116.489 79.5665 104.44C73.992 100.86 68.0301 97.873 62.2534 94.6147C61.5124 89.6933 63.146 89.1333 67.0533 91.7128C76.6193 98.0257 86.5221 103.863 95.8523 110.499C112.593 122.412 130.748 128.708 154.107 125.755C150.149 128.284 148.432 129.387 146.697 130.49Z" fill="#91D1F7"/>
<path d="M335.155 325.8C332.292 326.207 329.277 327.412 326.6 326.903C301.809 322.066 279.208 312.444 260.345 294.999C263.09 295.423 266.492 294.965 268.496 296.424C288.639 311.087 310.937 320.624 335.155 325.8Z" fill="#ACB6C5"/>
<path d="M514.218 695.162C510.108 703.324 502.664 698.623 500.627 695.857C493.604 686.354 483.953 681.11 474.32 675.476C477.621 675.934 481.023 676.002 484.172 676.935C490.808 678.887 497.309 681.28 503.86 683.486L503.944 683.367C505.09 684.487 506.235 685.59 507.363 686.71L507.212 686.897C507.801 687.457 508.391 688 508.98 688.56H508.929C509.536 689.086 510.159 689.629 510.765 690.155C510.765 690.155 510.698 690.155 510.681 690.155C511.304 690.681 511.927 691.224 512.55 691.75C512.55 691.75 512.483 691.801 512.483 691.818C512.971 692.463 513.443 693.091 513.931 693.719C514.083 694.194 514.184 694.686 514.218 695.178V695.162Z" fill="#E5886D"/>
<path d="M155.204 462.953C144.308 471.693 133.395 480.415 122.498 489.155C121.605 489.053 120.73 488.934 119.837 488.833C119.719 487.712 119.601 486.576 119.483 485.455C130.481 475.732 141.462 466.008 152.459 456.284C153.47 457.302 154.48 458.303 155.491 459.321L155.204 462.953Z" fill="#EFB04B"/>
<path d="M216.971 685.056C212.524 689.078 208.583 694.016 203.497 696.918C196.845 700.703 189.233 702.739 182.142 705.811C179.532 706.948 177.258 708.865 174.816 710.41C173.25 709.018 171.701 707.643 170.959 706.982C186.42 699.617 201.695 692.336 216.971 685.056Z" fill="#ACB6C5"/>
<path d="M276.714 647.561C274.896 647.187 272.622 647.408 271.342 646.373C257.364 635.054 241.549 633.815 224.758 637.311C223.428 637.582 221.996 637.379 220.632 637.396C238.551 627.146 261.86 631.371 276.698 647.544L276.714 647.561Z" fill="#ACB6C5"/>
<path d="M503.853 683.497C497.302 681.291 490.801 678.898 484.166 676.947C481.016 676.013 477.614 675.945 474.313 675.487C471.939 675.436 469.581 675.385 467.223 675.334C462.053 674.791 456.865 674.231 451.695 673.688C470.507 669.276 488.275 670.549 503.87 683.48L503.853 683.497Z" fill="#ACB6C5"/>
<path d="M298.205 656.573C295.342 652.093 292.479 647.613 289.633 643.132C292.547 642.369 295.46 641.588 298.374 640.824C300.462 644.931 302.551 649.021 304.639 653.128C302.483 654.282 300.344 655.419 298.189 656.573H298.205Z" fill="#E5886D"/>
<path d="M384.297 644.376C377.324 641.813 370.403 639.03 363.329 636.756C359.674 635.585 355.144 634.21 355.245 640.982C354.807 640.931 354.42 640.761 354.083 640.455C353.628 637.689 353.191 634.923 352.517 630.816C364.39 633.023 374.798 637.503 384.297 644.359V644.376Z" fill="#ACB6C5"/>
<path d="M155.817 712.467C152.381 715.437 148.996 718.491 145.442 721.325C145.005 721.665 143.725 720.918 142.832 720.68C144.819 710.634 147.261 709.09 155.817 712.484V712.467Z" fill="#E5886D"/>
<path d="M155.49 459.323C154.479 458.305 153.469 457.303 152.458 456.285C156.652 452.314 160.862 448.343 165.073 444.355C162.664 449.514 160.273 454.673 157.865 459.832C157.073 459.662 156.282 459.492 155.49 459.323Z" fill="#91D1F7"/>
<path d="M237.145 671.982C237.415 672.44 237.633 672.932 237.768 673.442C232.008 676.242 226.249 679.059 220.489 681.859C226.03 678.567 231.587 675.274 237.128 671.982H237.145Z" fill="#ACB6C5"/>
<path d="M298.208 656.568C300.364 655.414 302.503 654.277 304.659 653.123C304.659 657.332 304.659 661.558 304.659 665.766C303.766 665.885 302.857 666.004 301.964 666.139L298.208 656.568Z" fill="#A36B70"/>
<path d="M434.233 651.075C430.612 654.724 426.991 658.355 423.37 662.004C423.319 660.629 422.713 658.491 423.336 658.033C426.805 655.487 430.561 653.349 434.233 651.075Z" fill="#ACB6C5"/>
<path d="M191.755 548.388C191.199 545.638 190.643 542.889 190.087 540.123C189.515 538.46 188.959 536.797 188.386 535.134C190.727 534.302 193.068 533.471 195.392 532.622L195.477 532.69C195.005 537.696 194.517 542.703 194.045 547.709C193.287 547.929 192.512 548.15 191.755 548.371V548.388Z" fill="#455677"/>
<path d="M119.487 485.44C119.604 486.56 119.722 487.697 119.84 488.817C119.352 489.122 119.015 489.547 118.83 490.09C115.714 491.261 112.598 492.449 109.466 493.62C112.8 490.887 116.152 488.172 119.487 485.44Z" fill="#91D1F7"/>
<path d="M298.374 640.803C295.46 641.567 292.547 642.347 289.633 643.111C290.02 641.787 290.509 639.31 290.761 639.344C293.321 639.598 295.848 640.26 298.391 640.803H298.374Z" fill="#ACB6C5"/>
<path d="M283.358 656.209C281.674 653.969 279.99 651.712 278.306 649.455C279.99 651.695 281.674 653.952 283.358 656.209Z" fill="#ACB6C5"/>
<path d="M507.391 686.69C506.245 685.569 505.099 684.465 503.97 683.344C505.116 684.448 506.262 685.569 507.391 686.69Z" fill="#ACB6C5"/>
<path d="M121.723 631.453C121.352 632.133 120.981 632.795 120.61 633.474C120.425 633.288 120.021 633.016 120.054 632.948C120.374 632.269 120.762 631.606 121.116 630.944L121.723 631.453Z" fill="#207EC5"/>
<path d="M395.63 652.799C394.77 652.17 393.911 651.542 393.068 650.913C393.927 651.542 394.787 652.17 395.63 652.799Z" fill="#ACB6C5"/>
<path d="M168.296 442.504C167.218 443.132 166.139 443.744 165.043 444.372C166.122 443.744 167.201 443.132 168.296 442.504Z" fill="#91D1F7"/>
<path d="M439.158 645.267C438.585 646.032 438.012 646.813 437.422 647.577C437.995 646.796 438.568 646.032 439.158 645.267Z" fill="#ACB6C5"/>
<path d="M391.172 649.372C390.566 648.896 389.959 648.421 389.369 647.928C389.976 648.404 390.582 648.879 391.172 649.372Z" fill="#ACB6C5"/>
<path d="M80.9471 637.931C80.6776 638.152 80.408 638.372 80.1553 638.593C80.2058 638.423 80.189 638.186 80.2901 638.101C80.4585 637.982 80.7113 637.948 80.9303 637.897L80.9471 637.931Z" fill="#207EC5"/>
<path d="M272.366 127.448C272.534 127.618 272.719 127.788 272.888 127.958C272.517 128.094 272.146 128.23 271.792 128.348C271.995 128.043 272.18 127.737 272.366 127.431V127.448Z" fill="#5C6A7A"/>
<path d="M218.871 683.448C218.298 684.059 217.725 684.654 217.169 685.265C217.742 684.654 218.315 684.059 218.871 683.448Z" fill="#ACB6C5"/>
<path d="M109.596 493.562C108.703 494.156 107.81 494.768 106.933 495.362C107.826 494.768 108.72 494.156 109.596 493.562Z" fill="#91D1F7"/>
<path d="M249.375 247.516C248.785 248.416 248.195 249.316 247.605 250.233C248.195 249.333 248.785 248.433 249.375 247.516Z" fill="#ACB6C5"/>
<path d="M532.391 118.627C531.801 118.016 531.211 117.422 530.604 116.81C531.194 117.422 531.784 118.016 532.391 118.627Z" fill="#ACB6C5"/>
<path d="M220.223 637.724C219.684 638.165 219.161 638.59 218.622 639.014C219.161 638.573 219.684 638.148 220.223 637.724Z" fill="#ACB6C5"/>
<path d="M155.497 459.32C156.289 459.489 157.081 459.659 157.872 459.829C161.308 461.322 165.097 464.547 168.112 463.919C173.99 462.714 179.362 459.201 185.071 456.995C186.856 456.299 189.08 456.74 191.117 456.672C190.831 458.946 191.269 461.763 190.09 463.359C187.614 466.719 183.926 469.162 181.366 472.472C178.486 476.205 175.96 480.346 173.99 484.639C173.249 486.268 173.771 489.595 175 490.732C176.145 491.784 179.631 491.818 180.996 490.816C186.991 486.336 192.482 481.143 198.427 476.578C200.347 475.102 203.109 474.695 205.483 473.795C205.45 476.341 206.005 479.056 205.264 481.381C203.412 487.253 200.565 492.836 199.016 498.775C198.359 501.287 199.959 504.41 200.532 507.261C203.092 506.429 206.005 506.124 208.127 504.664C211.327 502.475 213.803 499.217 216.952 496.909C218.687 495.636 221.18 495.364 223.318 494.652C223.201 497.129 223.706 499.862 222.813 502C221.095 506.124 218.3 509.789 216.464 513.879C213.887 519.581 213.635 525.334 217.845 530.578C207.723 528.965 212.422 519.971 209.997 514.541C193.458 517.103 192.549 516.289 189.938 496.213C182.697 498.215 174.781 504.155 168.398 495.874C161.207 486.557 168.415 478.394 171.834 470.995C166.192 468.246 160.718 465.599 155.262 462.951C155.363 461.746 155.447 460.525 155.548 459.32H155.497Z" fill="#162B6E"/>
<path d="M143.975 371.453C149.145 372.199 154.114 373.2 159.116 373.421C160.311 373.472 161.625 370.943 162.888 369.586C161.726 368.534 160.53 367.515 159.419 366.412C155.899 362.984 152.413 359.522 148.017 355.178C156.135 357.673 162.13 361.05 168.042 360.88C173.785 360.71 179.41 356.909 186.096 354.33C183.671 357.605 181.077 361.186 178.399 364.715C177.035 366.514 175.502 368.177 174.037 369.891C176.462 370.977 178.972 373.082 181.313 372.929C184.698 372.708 187.982 370.825 191.182 369.705C190.054 377.426 182.61 381.448 174.206 379.445C170.551 378.563 166.307 378.614 162.652 379.547C152.632 382.127 144.918 378.461 143.975 371.436V371.453Z" fill="#207EC5"/>
<path d="M252.039 465.241C264.67 474.981 275.011 476.56 284.122 464.036C284.729 464.697 285.335 465.359 285.924 466.004C282.64 470.756 279.356 475.524 275.887 480.531C281.343 487.811 286.362 487.319 296.737 477.595C295.137 489.813 283.112 496.075 273.226 489.118C266.523 484.4 260.763 478.274 254.784 472.555C253.656 471.486 253.521 469.381 252.022 465.258L252.039 465.241Z" fill="#207EC5"/>
<path d="M199.334 427.769C214.761 436.543 218.988 436.322 229.413 426.734C230.676 433.454 226.567 438.477 218.163 440.48C209.489 442.533 201.709 437.663 199.334 427.769Z" fill="#207EC5"/>
<path d="M214.894 391.87C225.807 399.371 235.71 398.896 244.552 388.9C245.023 397.216 240.19 402.375 231.348 403.563C223.079 404.666 216.864 400.542 214.894 391.853V391.87Z" fill="#207EC5"/>
<path d="M267.657 574.921C269.408 573.292 271.143 571.663 272.894 570.051C273.147 570.272 273.4 570.509 273.652 570.747C271.732 572.206 269.812 573.666 267.893 575.125L267.674 574.938L267.657 574.921Z" fill="#207EC5"/>
<path d="M266.009 576.603C266.565 576.043 267.121 575.482 267.677 574.922L267.896 575.109C267.34 575.669 266.767 576.23 266.211 576.807L266.025 576.603H266.009Z" fill="#207EC5"/>
<path d="M426.781 75.5864C430.857 79.0653 433.939 81.7127 437.004 84.3431C434.192 86.0401 431.025 89.502 428.668 89.0099C424.912 88.2292 421.678 84.8182 418.226 82.5272C420.634 80.5757 423.059 78.6071 426.781 75.5864Z" fill="#ACB6C5"/>
<path d="M266.188 576.804C266.744 576.244 267.316 575.684 267.872 575.107C269.792 573.648 271.712 572.188 273.632 570.729C280.655 561.803 287.678 552.893 294.701 543.967C294.953 543.933 295.425 543.899 295.442 543.831C295.442 543.373 295.391 542.915 295.341 542.457C295.341 542.134 295.459 541.88 295.745 541.727C306.49 543.797 312.654 539.436 311.947 532.512C307.669 533.106 303.357 533.7 299.029 534.294C310.532 505.75 313.496 476.12 309.825 445.71C308.747 436.783 307.433 427.874 306.237 418.948C314.692 420.577 323.129 422.342 331.601 423.835C358.749 428.604 374.732 451.972 368.366 478.954C361.713 507.159 346.876 530.289 325.066 549.465C305.479 566.69 283.771 579.061 258.559 585.239C261.102 582.421 263.645 579.587 266.171 576.77L266.188 576.804ZM349.823 447.559C341.116 457.707 331.146 456.299 320.721 450.852C321.546 459.337 325.875 462.103 336.788 461.407C345.444 460.847 349.891 456.248 349.823 447.576V447.559Z" fill="#F9C10F"/>
<path d="M226.054 704.717C230.871 700.356 235.688 695.978 240.504 691.616C241.077 692.244 241.65 692.872 242.222 693.5C240.083 700.797 234.93 704.887 226.054 704.717Z" fill="#455677"/>
<path d="M208.507 720.651C209.012 720.379 209.535 720.107 210.04 719.835C209.737 720.294 209.434 720.77 209.113 721.228C208.911 721.024 208.709 720.837 208.49 720.634L208.507 720.651Z" fill="#162B6E"/>
<path d="M188.389 535.118C188.962 536.781 189.535 538.444 190.09 540.107C183.101 542.262 176.247 545.096 169.106 546.352C161.898 547.625 157.148 543.671 156.862 536.068C156.694 531.282 154.723 530.553 150.58 531.079C139.01 532.538 138.555 531.995 137.797 520.897C137.713 519.743 136.315 518.13 135.17 517.672C125.335 513.837 123.718 509.136 129.377 500.21C130.707 498.106 131.937 495.916 133.216 493.761L133.183 493.676C133.722 493.15 134.261 492.624 134.8 492.081C136.029 493.235 137.258 494.389 138.488 495.543C138.303 496.069 138.117 496.595 137.949 497.138C136.804 500.974 135.659 504.809 134.513 508.644C138.303 508.474 142.109 508.118 145.898 508.237C147.869 508.305 150.833 508.678 151.506 509.934C152.214 511.241 151.018 513.905 150.125 515.704C148.896 518.13 147.161 520.303 144.062 524.919C151.523 523.086 156.609 521.643 161.763 520.642C163.733 520.252 165.889 520.863 167.961 521.032C167.792 523.12 167.977 525.326 167.405 527.294C166.192 531.401 162.672 535.542 168.314 539.055C172.693 538.58 177.072 538.121 181.468 537.646C182.124 537.409 182.781 537.171 183.421 536.933C183.977 536.713 184.55 536.475 185.122 536.238C186.2 535.864 187.278 535.491 188.356 535.101L188.389 535.118Z" fill="#162B6E"/>
<path d="M138.494 495.567C137.264 494.413 136.035 493.259 134.806 492.105C134.267 492.631 133.728 493.174 133.189 493.701L133.223 493.785C128.423 492.564 123.623 491.325 118.823 490.103C119.008 489.56 119.345 489.136 119.833 488.83C120.726 488.932 121.602 489.034 122.494 489.153C122.494 489.153 122.814 488.898 122.814 488.881C123.421 489.22 124.027 489.56 124.633 489.916H141.694C140.464 492.105 139.488 493.836 138.494 495.567Z" fill="#455677"/>
<path d="M181.505 537.667C177.126 538.142 172.747 538.6 168.352 539.075C172.731 538.6 177.109 538.142 181.505 537.667Z" fill="#455677"/>
<path d="M185.161 536.267C184.588 536.505 184.032 536.742 183.458 536.963C184.032 536.725 184.588 536.505 185.161 536.267Z" fill="#455677"/>
<path d="M195.394 532.63C195.613 532.392 195.832 532.154 196.051 531.917C195.848 532.171 195.663 532.426 195.461 532.697L195.377 532.63H195.394Z" fill="#455677"/>
<path d="M299.023 534.3C303.334 533.706 307.662 533.112 311.94 532.518C312.647 539.442 306.5 543.803 295.739 541.733C296.833 539.255 297.928 536.778 299.023 534.317V534.3Z" fill="#B4912C"/>
<path d="M295.345 542.469C295.396 542.927 295.463 543.386 295.446 543.844C295.446 543.895 294.974 543.929 294.705 543.98C294.924 543.471 295.126 542.978 295.345 542.469Z" fill="#B4912C"/>
<path d="M370.713 653.262C385.18 655.264 397.373 661.289 406.03 673.541C394.257 666.787 382.485 660.016 370.713 653.262Z" fill="#162B6E"/>
<path d="M405.957 673.498C406.328 673.956 406.699 674.432 407.069 674.89C406.699 674.432 406.328 673.973 405.957 673.498Z" fill="#162B6E"/>
<path d="M349.832 447.554C349.9 456.226 345.454 460.842 336.797 461.385C325.901 462.08 321.572 459.314 320.73 450.829C331.155 456.294 341.109 457.685 349.832 447.537V447.554Z" fill="#B4912C"/>
</svg>
