<svg width="709" height="918" viewBox="0 0 709 918" fill="none" xmlns="http://www.w3.org/2000/svg">
<path d="M32.293 150.368C63.1068 100.928 113.012 67.2271 176.597 52.8972C206.632 46.1378 237.606 42.7001 268.679 42.7001C318.185 42.7001 368.21 50.9852 421.59 68.0576C440.202 74.0058 458.834 77.0186 476.927 77.0186C527.511 77.0186 568.151 53.9594 591.336 12.109C593.193 8.72929 599.963 0 608.71 0C609.209 0 609.708 0.0386252 610.188 0.0772503C619.813 1.19738 625.305 11.6455 626.304 13.7119C635.67 33.1983 638.266 53.3993 634.072 74.9715C635.41 74.6625 636.768 74.4886 638.166 74.4886C649.609 74.4886 653.862 85.2264 655.46 89.2821C666.423 117.054 662.569 143.589 644.337 166.05C629.159 184.744 609.269 194.227 585.225 194.227C584.925 194.227 584.626 194.227 584.326 194.227C617.577 249.074 632.135 301.103 627.562 349.114C622.449 402.899 593.353 453.151 541.011 498.574C561.96 518.755 586.224 537.971 614.861 557.11C621.411 561.475 626.583 564.932 628.161 571.208C629.798 577.794 626.443 583.375 622.569 589.845C619.494 594.944 614.821 602.321 608.79 608.926C624.926 622.541 641.161 636.485 656.898 649.984C669.579 660.857 682.679 672.117 695.64 683.105C714.871 699.444 707.562 712.905 705.165 717.327C700.592 725.767 693.084 730.228 683.478 730.228C679.045 730.228 674.152 729.282 668.52 727.331C658.236 723.758 647.971 720.186 637.287 716.458C639.883 720.417 642.459 724.299 645.035 728.123C654.901 742.743 648.091 752.438 643.158 756.918C637.966 761.63 632.674 762.615 629.139 762.615C622.509 762.615 616.977 759.236 613.403 756.706C606.653 751.936 599.763 747.165 593.453 742.801C592.195 745.543 590.477 748.247 587.941 750.468C583.448 754.369 578.895 755.199 575.879 755.199C568.51 755.199 563.018 750.68 559.024 747.397C558.545 747.011 558.086 746.625 557.626 746.258C554.052 743.399 550.477 740.522 546.922 737.664C538.954 731.232 530.707 724.589 522.479 718.293C510.577 723.044 498.874 728.027 486.513 733.28C485.115 733.878 483.717 734.458 482.319 735.056C484.875 746.953 483.098 757.42 476.947 766.71C485.095 770.167 492.823 773.43 500.572 776.154C508.66 778.993 518.026 782.102 527.112 783.125C546.503 785.288 558.944 795.756 564.077 814.277L564.316 815.146L564.995 824.068V826.366V830.943L562.978 845.099L562.259 849.947L548.859 880.557L547.362 883.145L547.002 883.725L546.783 884.014L547.002 885.675L513.313 914.335L509.518 915.223L505.085 916.711H503.987L498.135 917.251L484.536 914.374L414.64 858.773L420.532 851.84L413.522 857.749L411.545 855.567L413.502 853.809L411.445 855.432L409.109 852.67L408.709 853.23L398.545 841.932L397.506 838.456L396.947 837.741L394.81 834.806L394.65 834.555C393.832 833.261 392.973 831.986 392.134 830.712C390.037 827.564 387.841 824.3 385.983 820.65C382.129 813.06 379.992 812.307 375.699 812.307C375.219 812.307 374.72 812.307 374.201 812.365C373.482 812.403 372.783 812.442 372.104 812.442C357.426 812.442 346.023 802.457 341.61 786.119C336.857 788.456 331.705 789.672 326.492 789.672C318.265 789.672 309.957 786.621 303.107 781.078C299.952 778.529 297.076 777.448 293.482 777.448C290.966 777.448 287.97 777.969 283.756 779.147C280.322 780.113 276.847 781.445 273.172 782.855C271.595 783.454 270.017 784.072 268.439 784.651L251.904 792.975L242.518 799.406L230.596 807.517L218.055 814.817L217.456 813.504L216.357 813.968L213.601 814.701L207.111 816.304L190.137 816.459L167.131 811.013L164.156 810.491L158.344 809.371L150.476 809.448L147.061 810.26L138.214 814.875L129.767 825.15L128.709 825.903C121 831.407 113.032 834.188 105.024 834.188C97.8947 834.188 90.8453 831.986 84.0954 827.622L83.4363 827.197L81.7589 826.714L72.1932 811.785L71.0749 805.992L71.1348 792.434L72.5926 786.563L73.1318 785.539C87.6301 758.038 112.213 743.361 148.239 740.869C148.159 740.271 148.06 739.691 147.98 739.093C146.562 729.436 145.104 719.452 143.846 709.583C142.768 701.163 145.643 696.026 148.239 693.187C150.776 690.425 155.528 687.123 163.796 687.123C164.495 687.123 165.234 687.142 165.873 687.2C166.053 687.2 166.232 687.2 166.412 687.18H166.931C170.266 687.045 173.402 686.929 176.118 686.929C195.469 686.929 198.564 695.523 204.156 711.147L204.495 712.113C206.193 716.825 209.068 721.402 212.363 724.666C214.92 727.177 216.657 728.085 217.436 728.085C217.875 728.085 219.612 727.833 223.587 724.647C242.558 709.39 263.627 699.174 286.233 694.21C245.034 659.1 219.213 615.55 211.425 568.041C203.457 519.393 214.82 468.948 244.296 422.173C244.555 421.768 244.815 421.343 245.074 420.937C222.288 405.506 206.233 385.17 197.306 360.354C195.289 354.734 194.39 345.966 198.544 339.728C201.1 335.904 205.633 333.973 212.024 333.973C214.88 333.973 218.115 334.34 220.931 334.977C226.183 336.174 231.015 337.024 235.529 337.526C220.891 330.921 205.933 324.22 191.075 317.847C187.64 316.379 184.206 314.872 180.751 313.366C165.034 306.51 148.759 299.442 132.443 294.633C121.919 291.543 111.514 289.959 101.489 289.959C78.5038 289.959 56.5566 298.225 36.267 314.525C31.1946 318.6 25.623 322.385 19.3723 322.385C6.01233 322.385 3.65582 307.514 2.89697 302.609C-5.63025 248.553 4.81415 194.478 32.293 150.368ZM499.274 880.808C499.334 881.6 499.473 882.16 499.593 882.547C499.973 882.469 500.532 882.315 501.271 881.967C516.488 875.053 533.602 838.881 529.469 822.427L529.389 822.04C529.149 820.92 528.949 820.032 528.75 819.317C528.47 819.414 528.151 819.53 527.811 819.665C511.775 827.409 505.884 842.994 500.791 859.622C499.074 865.281 498.555 872.407 499.274 880.828V880.808ZM190.676 752.766C190.995 753.654 191.315 754.581 191.594 755.508L192.333 754.659L190.676 752.766ZM279.263 735.423C279.103 733.917 278.964 732.411 278.824 730.904C271.675 733.376 265.024 736.775 258.714 741.14L256.977 742.53L256.697 742.221L256.597 742.26L256.457 741.951L252.004 737.026L255.978 743.187L252.703 745.157L251.045 746.412L248.988 748.092L246.652 749.927L246.293 749.966L244.675 751.105L236.966 754.968C229.138 758.888 221.07 762.963 212.942 766.768C211.385 767.502 209.707 767.868 207.95 767.868C205.074 767.868 202.738 766.864 201.2 766.208C200.96 766.111 200.721 765.995 200.621 765.956L192.513 763.562C192.293 765.396 191.694 767.193 190.556 768.95C186.502 775.207 178.514 775.864 173.741 776.269L172.164 776.405L170.626 776.057C163.556 774.473 157.226 773.701 151.235 773.701C141.19 773.701 132.303 775.96 124.275 780.557L108.619 793.38L108.499 795.176L106.043 797.706C105.304 798.46 104.964 799.02 104.824 799.309C104.924 799.483 105.144 799.753 105.483 800.12C105.843 799.734 106.282 799.213 106.801 798.498C118.025 783.203 133.861 775.111 152.613 775.111C159.582 775.111 167.011 776.231 174.68 778.432C182.069 780.557 188.579 781.58 194.59 781.58C205.893 781.58 215.758 777.853 225.683 769.858C241.04 757.478 259.333 749.328 280.122 745.601C279.942 742.279 279.603 738.9 279.263 735.365V735.423ZM600.662 58.8068C574.601 86.1921 541.61 102.55 500.871 108.266L511.356 114.524C520.961 118.328 530.567 120.24 539.933 120.24C573.303 120.24 599.444 95.1338 600.702 61.8582C600.742 60.854 600.702 59.8304 600.662 58.7875V58.8068ZM584.446 161.086C596.149 161.086 607.412 156.413 615.38 148.282C622.949 140.557 626.783 130.514 626.204 119.97V119.564L626.244 117.536C624.606 118.541 622.988 119.526 621.371 120.491C614.441 124.701 607.292 129.047 600.622 133.604C585.065 144.226 569.728 150.426 553.253 152.627C558.265 155.331 564.496 157.243 572.005 159.348C576.099 160.488 580.292 161.086 584.446 161.086ZM408.13 791.159C422.369 817.154 441.52 840.059 465.165 859.372C465.844 856.822 466.703 854.331 467.541 851.917C468.899 847.938 470.776 842.512 470.117 840.387C469.518 838.784 464.446 835.405 461.71 833.589C459.174 831.89 456.538 830.152 454.101 828.162L445.714 821.268L453.622 813.871C453.942 813.581 454.241 813.292 454.561 813.021L459.573 808.599L465.664 811.476C467.382 812.287 469.119 813.079 470.836 813.852C474.311 815.435 477.866 817.058 481.4 818.873C483.897 815.088 486.593 811.534 489.209 808.077C489.289 807.961 489.369 807.865 489.448 807.749L462.369 795.37L464.486 806.88L451.785 794.423L451.645 794.578L445.035 787.799L440.701 783.55L424.606 774.377C413.043 774.628 409.728 778.819 408.03 785.926C407.491 788.205 407.811 790.541 408.13 791.159ZM422.529 740.618C429.838 740.618 437.247 742.086 444.536 744.964C445.095 745.176 445.774 745.408 446.473 745.62C446.752 744.307 447.012 742.955 447.272 741.584C447.292 741.487 447.312 741.372 447.332 741.275L441.92 733.898L441.4 733.492C435.489 730.363 428.719 728.722 421.79 728.722C409.488 728.722 397.426 733.782 388.52 742.666L386.063 745.427L380.991 751.936L379.613 754.214L376.238 772.697C383.667 752.959 401.061 740.618 422.489 740.618H422.529ZM315.489 745.794C316.388 746.876 317.206 747.957 318.005 749.019C319.383 750.854 321.12 753.114 322.199 753.732C322.199 753.732 322.379 753.828 322.738 753.944C322.738 753.905 322.738 753.867 322.738 753.828C322.279 743.67 322.838 732.102 329.488 721.364C326.752 719.838 323.896 718.39 320.921 716.883C319.902 716.362 318.864 715.84 317.845 715.319C312.953 726.617 310.776 736.234 315.469 745.833L315.489 745.794ZM278.904 638.474C304.306 671.402 337.855 693.36 378.594 703.751C379.154 703.886 380.112 704.06 381.45 704.06C383.247 704.06 385.105 703.731 386.463 703.21C399.383 698.073 411.365 695.581 423.048 695.581C435.529 695.581 447.731 698.556 459.274 704.427C459.633 704.62 460.731 704.909 462.089 704.909C462.928 704.909 463.507 704.794 463.707 704.716C473.492 701.491 483.417 697.687 492.983 693.998C496.458 692.665 499.933 691.333 503.428 690.019L567.452 654.87L572.324 657.439L585.305 664.372L548.999 696.026L553.632 699.289C554.471 696.566 555.969 694.017 558.625 692.105C561.121 690.309 564.236 689.401 567.911 689.401C572.244 689.401 576.997 690.695 580.332 692.781C581.271 693.36 582.19 693.959 583.128 694.539C582.249 691.777 581.81 689.073 581.411 686.582C581.191 685.191 580.971 683.897 580.712 682.739L578.076 671.228L590.277 670.997C591.496 670.977 592.914 670.842 594.431 670.688C596.408 670.494 598.645 670.263 600.941 670.263C603.977 670.263 606.633 670.649 609.049 671.441C620.832 675.284 632.634 679.34 644.277 683.414C637.706 677.775 631.116 672.136 624.546 666.516C611.286 655.18 597.587 643.457 584.167 631.792C562.699 646.779 536.498 655.006 510.257 655.006C486.713 655.006 464.426 648.343 445.814 635.77C445.414 635.5 444.356 635.075 443.477 634.727C442.659 634.399 441.82 634.052 441.021 633.685L439.323 632.912L401.38 594.074L407.331 587.47L415.12 578.818L445.474 598.265L445.734 598.458C457.536 607.149 466.822 613.329 478.705 613.677L479.943 613.715L483.437 614.681C487.312 615.415 491.106 616.361 494.78 617.269C501.87 619.026 508.56 620.668 514.691 620.668C515.21 620.668 515.729 620.668 516.248 620.629C544.865 619.219 567.931 606.608 586.743 582.062C587.542 581.019 588.101 580.227 588.48 579.629C588.36 579.551 588.221 579.474 588.081 579.397C585.025 577.678 582.25 575.824 579.534 574.009C578.395 573.255 577.277 572.502 576.119 571.749L572.943 569.702L575.919 565.028L572.364 569.258L560.322 559.833L521.081 526.5L506.783 513.522L501.271 510.47L483.198 474.375L486.812 469.682L493.702 460.76L501.65 466.225C503.028 467.171 504.406 468.156 505.764 469.141C508.74 471.285 511.575 473.332 514.391 474.839C555.09 444.846 579.494 409.601 588.92 367.19C588.86 366.765 588.82 366.36 588.78 365.935L588.66 364.332L589.079 362.787C595.59 339.11 595.03 313.289 587.362 283.856C571.565 223.176 534.701 174.064 474.691 133.74C432.074 105.099 383.008 86.9839 328.529 79.761C341.67 92.1017 355.01 107.88 363.158 128.158C363.896 130.012 364.615 131.847 365.294 133.701C377.017 120.665 392.094 113.597 408.55 113.597C421.61 113.597 434.81 118.212 446.712 126.961C482.04 152.898 490.087 209.773 463.268 243.976C454.98 254.54 444.196 261.55 431.555 264.698C437.287 271.96 442.998 279.511 447.292 288.009C463.787 320.608 462.509 354.038 443.617 384.687C442.579 386.368 441.64 388.28 440.622 390.327C440.102 391.389 439.563 392.47 439.024 393.533L438.125 395.271L436.588 396.545C434.051 398.631 431.595 400.891 428.979 403.266C422.748 408.944 416.298 414.815 408.33 419.064C397.306 424.935 385.664 429.454 374.381 433.838C369.748 435.634 364.975 437.488 360.382 439.4L359.543 439.748L358.644 439.941C347.321 442.413 335.818 443.668 324.455 443.668C308.439 443.668 292.144 441.177 275.968 436.271C231.615 503.112 232.633 578.605 278.804 638.455L278.904 638.474ZM35.4682 274.046C36.946 273.273 38.4038 272.501 39.8417 271.709C58.6735 261.512 79.3625 256.336 101.33 256.336C113.292 256.336 126.053 257.862 139.273 260.894C163.317 266.379 184.765 276.981 205.534 287.217C209.907 289.38 214.3 291.543 218.714 293.667C250.326 308.847 287.411 325.185 327.491 327.02C328.989 327.097 330.486 327.117 331.984 327.117C347.621 327.117 362.598 323.312 376.478 315.78C376.677 315.664 376.817 315.587 376.897 315.529C377.077 314.834 377.057 313.096 377.057 311.918C377.057 310.102 377.017 308.036 377.336 305.796L377.736 303.053L397.167 280.535L403.757 294.478C405.354 297.877 407.092 301.218 408.749 304.482C412.723 312.227 416.857 320.241 419.293 328.835C420.991 334.764 419.254 338.646 417.496 340.867C415.819 342.992 412.623 345.541 406.932 345.541C405.514 345.541 404.236 345.386 403.098 345.27C402.778 345.232 402.339 345.193 401.999 345.155L401.36 345.251C399.803 345.483 398.345 345.56 397.067 345.618C396.508 345.637 395.729 345.676 395.19 345.734C371.106 362.401 343.527 373.988 313.192 380.207L312.653 380.323L312.114 380.381C308.679 380.709 305.224 381.057 301.789 381.404C292.404 382.351 282.718 383.316 273.072 384.011C272.613 384.05 272.154 384.069 271.675 384.069C268.359 384.069 265.464 383.239 263.147 382.563C262.408 382.351 261.669 382.119 260.931 381.964V378.971L248.709 378.72C265.144 397.318 287.111 407.322 315.649 409.253C318.824 409.465 322.019 409.581 325.115 409.581C348.759 409.581 370.387 403.189 389.398 390.597C409.808 377.078 420.691 360.778 422.708 340.771C424.246 319.372 419.453 303.671 407.611 291.311L407.052 290.732L405.035 287.777L401.76 284.59L384.825 268.155L384.146 266.997C383.667 266.166 383.247 265.297 382.808 264.409C382.648 264.061 382.429 263.617 382.289 263.327C357.546 241.002 343.767 211.376 338.914 170.144C336.757 151.913 330.666 136.154 320.741 123.33L320.182 122.596L318.604 119.448L314.211 114.968C310.776 112.168 307.401 109.251 304.126 106.451C296.537 99.9619 289.388 93.8205 281.58 88.6641C269.737 80.8425 256.278 77.2117 239.223 77.2117C233.332 77.2117 226.961 77.6366 219.772 78.5443C171.205 84.5698 132.363 99.5757 101.03 124.431C99.3525 125.764 97.6551 127.772 95.8777 129.916C94.8393 131.171 93.7809 132.407 92.7025 133.604L89.6671 131.017L92.383 133.971L88.4089 137.815L86.4319 139.727L84.4149 141.696L82.2981 143.744L80.0415 145.926L79.8618 146.08L78.4239 147.258C75.8078 151.218 73.1119 155.157 70.4958 158.962C63.9456 168.502 57.7748 177.521 52.5826 187.12C42.4178 205.872 36.8062 228.062 35.4482 254.907V274.026L35.4682 274.046ZM259.473 370.647L261.01 372.076V370.435C260.511 370.512 259.992 370.589 259.473 370.647Z" fill="white"/>
<path d="M88.239 818.492C88.8381 818.666 89.2974 819.033 89.6169 819.554C101.04 826.932 112.063 825.734 122.787 818.067L123.187 818.492L122.727 818.125C125.523 814.726 128.339 811.308 131.135 807.909C131.315 807.426 131.654 807.117 132.173 807.001C135.868 805.07 139.582 803.139 143.277 801.227L143.656 800.763L144.235 800.937C145.893 800.531 147.55 800.145 149.208 799.74C152.563 799.701 155.918 799.682 159.273 799.643C161.549 800.087 163.826 800.512 166.102 800.956C167.141 801.13 168.179 801.323 169.198 801.497C176.567 803.235 183.916 804.973 191.285 806.731C196.137 806.692 200.97 806.653 205.823 806.615C207.6 806.171 209.358 805.746 211.135 805.302C211.774 805.128 212.393 804.954 213.032 804.799C216.267 803.448 219.502 802.096 222.718 800.744L222.598 800.86C223.437 800.357 224.295 799.875 225.134 799.373C229.008 796.727 232.902 794.1 236.777 791.454C240.092 789.195 243.387 786.916 246.702 784.656C252.593 781.702 258.484 778.727 264.375 775.773C269.907 773.764 275.339 771.427 280.99 769.844C290.955 767.063 300.062 766.02 309.508 773.648C318.215 780.697 329.977 782.571 340.182 775.695C347.85 770.539 349.148 773.088 350.486 780.253C353.082 794.1 361.43 803.505 373.532 802.714C385.654 801.903 390.526 807.658 394.94 816.368C397.256 820.925 400.392 825.116 403.147 829.481C403.727 830.292 404.326 831.103 404.905 831.914C405.464 832.629 406.003 833.343 406.562 834.058C406.862 835.101 407.181 836.144 407.481 837.187L407.721 837.438L408.1 836.897C408.1 836.897 408.759 837.032 408.779 837.051C409.538 837.959 410.277 838.867 411.036 839.774L410.956 839.678C413.672 842.884 416.388 846.09 419.124 849.296C419.124 849.296 419.004 849.18 419.004 849.199C419.663 849.933 420.322 850.648 420.981 851.381L420.921 851.304C443.607 869.342 466.293 887.38 488.959 905.418C492.194 906.094 495.429 906.789 498.664 907.465C499.982 907.349 501.3 907.214 502.638 907.098L503.337 907.021C504.436 906.654 505.534 906.287 506.612 905.92C507.232 905.766 507.851 905.63 508.47 905.476L536.348 881.76C536.268 881.142 536.508 880.679 537.087 880.389C537.566 879.732 538.065 879.056 538.545 878.4C538.964 877.685 539.363 876.99 539.783 876.275C544.016 866.619 548.23 856.982 552.464 847.326C552.644 846.128 552.823 844.912 553.003 843.714C553.642 839.234 554.281 834.734 554.92 830.253V826.352C554.92 825.715 554.92 825.097 554.92 824.46C554.72 821.891 554.521 819.342 554.341 816.773C550.427 802.598 541.68 794.467 525.884 792.71C516.098 791.628 506.393 788.5 497.067 785.236C485.105 781.026 473.562 775.734 460.422 770.346C475.759 757.271 475.239 743.134 470.287 729.596C487.401 722.354 503.697 715.266 520.232 708.719C522.389 707.87 526.403 709.048 528.44 710.612C540.442 719.785 552.084 729.384 563.887 738.808C568.999 742.883 574.81 748.832 581.161 743.308C585.155 739.832 585.934 732.937 588.23 727.414C597.197 733.633 608.28 741.184 619.204 748.928C624.776 752.868 630.427 755.166 636.238 749.874C641.97 744.679 640.472 739.156 636.598 733.401C629.129 722.335 621.94 711.075 613.313 697.866C634.481 705.243 653.133 711.751 671.825 718.24C684.227 722.547 691.815 720.983 696.249 712.852C701.501 703.177 696.348 696.63 688.979 690.372C659.743 665.536 630.787 640.372 601.47 615.633C596.538 611.461 595.18 608.912 600.172 603.678C605.484 598.116 609.898 591.588 613.872 585.003C620.901 573.299 620.482 572.643 609.139 565.072C579.244 545.122 551.166 523.087 526.423 498.038C640.792 404.005 642.229 297.767 565.045 182.49C567.481 182.857 570.077 183.282 572.674 183.649C598.495 187.376 620.302 179.979 636.438 160.107C652.953 139.751 655.589 116.846 646.084 92.7443C642.249 83.0107 638.655 82.0258 629.628 87.4526C626.233 89.4805 622.878 91.5469 617.846 94.5983C628.53 67.5027 629.049 42.435 617.187 17.8114C615.549 14.4124 612.035 10.0478 608.939 9.68084C606.263 9.37184 601.83 13.524 600.073 16.6913C563.807 82.161 489.878 100.064 418.405 77.2363C339.043 51.8788 259.403 44.1538 178.803 62.3076C47.9593 91.7786 -3.06427 201.339 12.6921 301.146C14.809 314.607 18.783 315.959 29.8065 307.095C61.0597 281.988 96.5067 273.974 135.269 285.368C155.778 291.413 175.368 300.548 195.039 308.987C220.741 320.015 246.123 331.738 271.485 343.093C254.39 349.795 236.577 348.424 218.564 344.329C214.71 343.46 208.119 343.016 206.841 344.928C204.884 347.864 205.304 353.368 206.642 357.134C216.068 383.341 233.621 403.329 258.484 417.872C256.427 421.174 254.59 424.168 252.733 427.142C195.219 518.452 211.874 620.017 295.628 689.329C297.566 690.932 300.281 694.814 299.702 695.606C297.486 698.619 294.39 702.365 291.015 703.041C267.97 707.618 247.84 717.603 229.887 732.03C220.541 739.542 213.751 739.87 205.164 731.392C200.691 726.989 197.076 721.099 194.979 715.228C188.109 696.108 188.449 695.992 167.221 696.765C166.562 696.784 165.883 696.842 165.224 696.803C156.637 696.243 152.643 700.26 153.681 708.372C155.458 722.277 157.595 736.143 159.592 750.125C127.36 750.087 98.4637 758.584 81.9484 789.89C81.6489 791.107 81.3493 792.343 81.0298 793.56C81.0298 797.403 80.9899 801.227 80.9699 805.07C81.1696 806.113 81.3693 807.136 81.569 808.179C83.7657 811.617 85.9624 815.035 88.1591 818.473L88.239 818.492ZM79.3723 132.934L79.2525 133.05C79.9515 132.374 80.6703 131.678 81.3693 131.003L81.2495 131.118C81.9485 130.442 82.6474 129.747 83.3463 129.071L83.2465 129.168C83.9455 128.492 84.6444 127.816 85.3433 127.14L85.2435 127.217C88.3788 123.78 91.1147 119.84 94.7293 116.962C130.755 88.3796 172.812 74.6291 218.524 68.9512C243.047 65.9191 266.452 66.962 287.241 80.6932C299.303 88.6693 309.867 98.7891 321.11 107.943L321.01 107.847C322.948 109.817 324.865 111.786 326.802 113.756L327.041 114.104C327.621 115.263 328.2 116.402 328.779 117.561C340.601 132.857 346.692 150.528 348.869 169.068C352.823 202.614 363.107 232.992 389.508 256.612C391.085 258.021 391.784 260.358 392.883 262.27C398.255 267.485 403.627 272.68 408.999 277.894L408.879 277.798C410.237 279.13 411.615 280.463 412.973 281.795L412.833 281.679C413.532 282.703 414.231 283.726 414.93 284.769C430.407 300.915 434.201 320.478 432.663 341.587C430.187 366.79 415.848 384.809 395.04 398.578C370.916 414.55 343.936 420.865 314.94 418.895C283.407 416.752 256.707 405.125 237.156 380.251C235.219 377.103 233.282 373.955 231.345 370.826C234.64 370.189 237.935 369.532 241.25 368.953C241.889 368.837 242.568 368.953 243.227 368.972C239.552 365.554 238.115 362.966 245.224 362.425C262.139 361.131 278.774 358.794 293.092 348.771C293.991 348.153 295.608 348.25 296.847 348.385C309.508 349.718 322.149 351.108 336.927 352.73C327.341 356.516 319.513 360.649 311.145 362.715C295.289 366.635 279.133 369.358 263.097 372.584C266.173 373.24 269.308 374.65 272.323 374.438C285.264 373.491 298.185 372.062 311.105 370.826C339.822 364.936 366.263 354.082 390.147 337.396C392.523 335.735 396.557 336.257 399.812 335.774C403.347 334.519 411.775 338.941 409.638 331.467C406.482 320.401 400.112 310.165 394.64 298.559C391.725 301.938 389.468 304.545 387.211 307.172C386.353 313.197 389.069 320.092 381.36 324.264C364.405 333.437 346.093 337.589 327.021 336.72C286.462 334.866 249.917 319.474 214.29 302.363C189.108 290.273 164.764 276.697 137.006 270.343C104.934 263.023 74.0802 264.317 44.7641 280.192C38.8929 283.379 32.9418 286.392 25.5329 290.273V254.758C26.791 229.593 31.6837 205.086 43.8055 182.722C51.6738 168.199 61.7786 154.815 70.885 140.91C71.7437 140.215 72.5825 139.519 73.4412 138.824L73.3014 138.94C74.0004 138.245 74.7192 137.569 75.4182 136.874L75.2984 137.009C75.9974 136.313 76.7162 135.638 77.4152 134.942L77.2754 135.058C77.9744 134.363 78.6733 133.687 79.3922 132.992L79.3723 132.934ZM100.84 787.283L100.76 787.225C101.499 786.626 102.238 786.008 102.977 785.41H102.897C103.616 784.792 104.355 784.193 105.074 783.575H105.014C105.713 782.938 106.412 782.32 107.111 781.682L106.931 781.47C108.289 780.195 109.647 778.94 110.985 777.665L111.085 777.8C129.577 763.084 150.646 761.636 172.952 766.657C184.135 765.711 184.315 763.625 180.361 753.563C175.388 740.933 172.653 727.51 168.938 714.416C171.834 709.067 175.189 708.893 179.063 713.856C181.979 720.674 184.894 727.491 187.83 734.328C188.509 735.197 189.208 736.085 189.887 736.954C190.506 737.669 191.125 738.364 191.744 739.079L191.704 738.943C192.343 739.677 192.982 740.392 193.621 741.126L193.701 740.933C198.035 743.521 202.508 745.954 206.622 748.851C207.361 749.372 206.622 751.825 206.602 753.37C205.623 754.49 204.625 755.63 203.646 756.75C205.344 757.252 207.5 758.662 208.659 758.121C219.023 753.254 229.228 748.02 239.473 742.903C240.491 742.188 241.49 741.473 242.508 740.74H242.628C243.327 740.16 244.026 739.581 244.725 739.021L245.124 739.426L244.745 738.982C245.464 738.441 246.182 737.901 246.881 737.341L247.021 737.244C248.259 736.491 249.517 735.738 250.756 735.004L250.616 735.12C251.355 734.521 252.074 733.942 252.813 733.343H252.892C264.156 725.502 276.497 720.423 290.576 717.912C289.777 722.586 289.258 725.734 288.719 728.862C289.318 735.873 290.276 742.864 290.276 749.874C290.276 751.497 287.261 754.297 285.324 754.587C265.474 757.619 247.281 765.112 232.143 777.318C213.551 792.304 194.68 794.255 171.894 787.708C150.526 781.566 129.597 784.251 115.019 804.104C111.324 809.145 106.232 813.2 100.021 808.295C93.9105 803.486 92.8322 797.248 98.8431 791.107C98.8831 790.547 99.0029 789.987 99.1826 789.446C99.7617 788.731 100.321 787.997 100.9 787.283H100.84ZM449.019 777.762C449.698 778.457 450.377 779.152 451.036 779.828L451.255 779.558C469.368 787.843 487.481 796.128 505.814 804.51C504.935 805.263 503.098 806.827 501.241 808.411C496.867 814.398 492.114 820.134 488.28 826.43C485.504 831.007 482.928 830.717 478.794 828.477C473.123 825.387 467.132 822.876 461.26 820.114C461.021 820.327 460.761 820.558 460.522 820.79C467.211 826.294 477.476 830.736 479.613 837.554C481.909 844.834 476.518 854.375 474.501 862.95V877.048C471.465 875.831 470.147 875.599 469.189 874.904C439.972 853.39 416.467 827.067 399.273 795.684C397.476 792.401 397.376 787.495 398.275 783.729C401.55 770.133 410.916 764.301 427.331 764.726C433.901 768.472 440.492 772.219 447.062 775.966L446.922 775.888C447.621 776.584 448.32 777.26 449.019 777.955V777.781V777.762ZM378.484 739.195C379.123 738.461 379.782 737.746 380.421 737.012V736.935C398.035 718.53 425.654 713.721 446.902 725.386L447.401 725.753C448.04 726.236 448.659 726.738 449.298 727.221C452.194 731.161 455.09 735.12 457.985 739.059C456.727 744.95 455.968 751.033 453.612 756.479C453.272 757.252 444.945 755.552 440.771 753.911C414.61 743.578 389.408 755.919 383.617 782.995C381.72 791.899 376.767 790.875 371.754 787.901C368.659 786.066 367.281 781.508 365.144 778.167L370.137 750.84C370.936 749.527 371.715 748.214 372.513 746.9L372.553 746.784C374.55 744.216 376.547 741.667 378.544 739.098L378.484 739.195ZM578.585 561.673C579.643 562.349 580.702 563.044 581.74 563.72C585.534 566.173 589.209 568.819 593.143 571.04C601.95 575.984 600.132 580.87 594.82 587.803C575.25 613.315 549.588 628.649 516.817 630.252C505.075 630.832 493.053 626.274 481.171 624.053C480.272 623.802 479.353 623.551 478.455 623.3C463.038 622.856 451.315 614.628 439.733 606.112C432.144 601.245 424.535 596.378 416.947 591.511C416.268 592.264 415.589 593.037 414.89 593.79C425.035 604.161 435.179 614.551 445.304 624.941C447.401 625.888 449.678 626.583 451.555 627.838C490.616 654.258 543.018 649.159 579.344 623.242C583.957 619.939 586.213 620.557 590.088 623.918C612.514 643.443 635.24 662.659 657.786 682.068C666.513 689.6 675 697.383 683.607 705.05C680.432 706.016 678.236 705.591 676.159 704.857C652.754 696.707 629.449 688.248 605.884 680.562C601.291 679.055 595.639 680.523 590.487 680.619C591.545 685.254 591.665 690.372 593.862 694.447C599.613 705.185 606.283 715.459 612.574 725.907C612.833 725.985 613.113 726.004 613.333 726.139C613.453 726.236 613.453 726.506 613.492 726.699C613.173 726.448 612.853 726.197 612.554 725.946C600.053 717.526 587.711 708.854 574.93 700.859C572.194 699.14 566.703 698.31 564.606 699.816C562.509 701.323 562.549 706.305 562.589 709.743C562.629 712.505 564.066 715.247 564.885 718.009C565.325 718.762 565.784 719.515 566.143 720.288C566.183 720.365 565.724 720.693 565.484 720.886C565.045 720.114 564.606 719.36 564.166 718.588C554.96 712.118 545.754 705.649 533.153 696.803C546.013 685.602 557.117 675.926 568.22 666.251C568.001 666.135 567.781 666.019 567.561 665.903L507.731 698.735C494.151 703.833 480.711 709.279 466.932 713.837C463.297 715.034 458.025 714.668 454.63 712.949C433.162 702.056 411.954 703.505 390.247 712.118C386.033 713.779 380.441 714.185 376.048 713.065C332.733 702.037 297.625 678.901 270.885 644.235C220.082 578.379 222.957 497.401 268.529 429.73C269.987 427.567 275.279 425.906 277.875 426.717C303.796 434.79 329.937 436.335 356.517 430.541C372.274 424.032 388.649 418.586 403.587 410.629C413.512 405.357 421.38 396.493 430.187 389.231C431.824 386.083 433.262 382.8 435.14 379.787C452.773 351.185 453.252 321.579 438.435 292.301C432.024 279.632 421.76 268.779 413.152 256.959C429.827 257.558 444.565 252.035 455.429 238.187C478.854 208.33 471.705 157.384 440.791 134.691C415.07 115.804 385.574 120.728 367.621 146.897C366.043 149.195 364.326 151.377 362.249 154.197C359.273 146.047 356.817 138.805 353.981 131.698C344.695 108.561 327.84 91.0641 308.649 75.3436C304.475 73.2193 300.301 71.1142 293.412 67.6186C299.343 67.6186 301.919 67.4641 304.455 67.6379C368.399 72.1377 427.671 90.3302 480.512 125.846C538.025 164.491 579.763 214.723 597.157 281.544C604.366 309.2 606.563 337.242 598.834 365.322C598.894 366.268 599.214 367.273 599.014 368.18C588.35 417.543 559.034 454.836 518.035 484.384C516.358 485.582 512.004 484.616 509.648 483.341C504.815 480.734 500.482 477.258 495.948 474.129C495.609 474.573 495.269 475.018 494.91 475.462C499.603 484.848 504.296 494.214 508.989 503.6C510.267 504.315 511.545 505.01 512.843 505.725L512.803 505.686C517.796 510.205 522.768 514.744 527.761 519.263C540.801 530.329 553.822 541.395 566.862 552.461C570.816 555.57 574.79 558.661 578.744 561.77L578.605 561.693L578.585 561.673ZM354.74 729.249C357.755 728.63 360.731 727.877 363.786 727.588C364.086 727.568 364.665 730.388 365.124 731.875C361.729 736.974 358.335 742.072 354.96 747.151L350.506 758.044C349.448 757.908 348.369 757.773 347.311 757.619V743.231C349.787 738.557 352.264 733.903 354.74 729.229V729.249ZM309.148 710.399C311.065 706.827 311.045 700.589 318.275 704.49C325.204 708.236 332.413 711.5 339.063 715.633C340.621 716.599 341.759 721.292 340.781 722.489C333.152 731.721 332.234 742.246 332.713 753.37C332.873 756.943 332.154 763.567 331.235 763.664C326.602 764.166 321.05 764.204 317.196 762.061C313.002 759.724 310.346 754.838 307.011 751.052C299.602 737.109 303.217 723.687 309.108 710.38L309.148 710.399ZM534.591 148.48C532.554 147.225 530.497 145.97 525.804 143.092C553.502 146.453 575.03 139.268 594.88 125.73C605.944 118.179 617.686 111.555 629.029 104.351C633.662 101.416 635.599 102.053 634.721 107.634C635.28 108.059 635.519 108.619 635.44 109.295C635.719 111.42 636.019 113.563 636.298 115.688L636.178 119.454C638.056 153 604.087 178.376 569.239 168.623C556.218 164.973 542.499 161.014 534.591 148.48ZM608.001 40.2334C608.959 47.5721 610.976 54.9302 610.697 62.2304C608.819 111.053 560.692 144.985 506.792 123.162C496.108 116.769 485.404 110.377 474.72 104.004C472.324 102.98 469.927 101.956 467.531 100.952C526.243 100.624 574.291 81.5816 608.5 33.8988C608.34 36.0232 608.18 38.1476 608.021 40.272L608.001 40.2334ZM386.273 146.047C385.833 145.893 385.394 145.738 384.955 145.603C385.154 145.41 385.374 145.217 385.574 145.023C400.152 133.204 415.789 132.586 431.165 143.208C456.987 161.034 464.795 202.961 447.022 228.299C438.814 240.003 427.83 245.217 415.129 243.537C419.084 239.983 423.717 236.797 427.112 232.645C445.464 210.107 439.173 166.808 415.309 149.89C406.383 143.575 396.777 141.489 386.273 146.066V146.047ZM539.184 820.134C544.456 841.088 525.005 881.857 505.534 890.702C497.127 894.526 490.177 891.262 489.338 881.606C488.639 873.436 488.839 864.649 491.216 856.866C496.867 838.345 503.917 820.172 523.787 810.806C533.932 806.943 536.827 808.701 539.184 820.134ZM399.113 179.381C392.583 184.479 388.809 189.23 384.156 190.273C382.019 190.756 376.128 184.209 375.529 180.346C374.55 173.896 378.664 167.696 386.213 168.566C390.027 168.99 393.242 174.243 399.094 179.4L399.113 179.381Z" fill="#162B6E"/>
<path d="M308.613 75.3412C327.825 91.0423 344.679 108.54 353.946 131.695C356.801 138.802 359.238 146.045 362.213 154.194C364.29 151.375 366.027 149.173 367.585 146.894C385.538 120.745 415.054 115.82 440.756 134.689C471.669 157.381 478.799 208.308 455.394 238.185C444.53 252.032 429.792 257.555 413.117 256.957C421.744 268.776 431.989 279.63 438.399 292.299C453.217 321.577 452.738 351.183 435.104 379.785C433.247 382.817 431.789 386.081 430.171 389.229C430.271 389.866 430.611 390.581 430.431 391.121C417.351 427.41 394.705 455.606 357.74 471.848C354.425 473.296 349.772 476.039 349.313 478.723C346.637 494.695 343.381 510.84 343.461 526.908C343.541 545.236 346.776 563.563 348.893 581.872C350.031 591.798 355.763 597.341 365.908 596.279C373.456 595.487 380.686 591.818 391.649 588.264C386.457 593.517 382.982 596.955 379.607 600.489C377.55 602.633 375.633 604.912 373.656 607.133C376.572 608.156 379.667 610.319 382.383 609.933C386.896 609.315 391.17 607.075 395.543 605.51C392.428 618.025 382.623 622.583 371.399 617.001C369.123 615.881 366.267 615.881 363.671 615.36C364.37 618.025 364.39 621.134 365.908 623.278C371.999 631.93 378.569 640.292 384.939 648.751C387.016 650.605 389.073 652.459 391.15 654.294C391.809 654.931 392.468 655.568 393.127 656.206C395.763 657.345 398.778 658.021 400.955 659.701C420.067 674.553 462.623 676.812 484.79 663.448C480.436 660.261 476.043 657.538 472.268 654.178C462.323 645.294 449.582 638.767 445.329 624.958C435.184 614.587 425.039 604.197 414.894 593.826C415.573 593.073 416.252 592.3 416.951 591.547C424.54 596.414 432.148 601.281 439.737 606.148C443.252 605.375 446.767 604.603 450.301 603.849C455.274 597.862 454.974 591.335 451.939 584.846C449.762 580.191 446.447 576.02 444.41 571.327C443.352 568.894 443.951 565.765 443.811 562.965C446.347 563.776 449.303 564.085 451.36 565.533C455.094 568.16 458.03 571.868 461.824 574.359C464.34 576.02 467.795 576.368 470.831 577.314C471.51 574.069 473.407 570.535 472.628 567.658C470.791 560.898 467.396 554.544 465.219 547.862C464.36 545.216 464.999 542.126 464.959 539.229C467.775 540.253 471.03 540.717 473.327 542.397C480.376 547.611 486.887 553.501 493.996 558.6C495.613 559.759 499.747 559.72 501.105 558.503C502.563 557.21 503.182 553.424 502.303 551.57C499.967 546.684 496.971 541.991 493.557 537.723C490.521 533.957 486.168 531.157 483.212 527.352C481.814 525.537 482.333 522.312 481.994 519.743C484.39 519.84 487.026 519.338 489.163 520.11C495.933 522.621 502.303 526.618 509.273 527.99C512.848 528.685 517.341 525.035 521.415 523.335C518.559 517.464 515.723 511.593 512.868 505.703L512.908 505.741C511.629 505.027 510.351 504.332 509.053 503.617C504.36 494.231 499.667 484.865 494.974 475.479C495.314 475.034 495.653 474.59 496.013 474.146C500.546 477.275 504.88 480.751 509.712 483.358C512.069 484.633 516.422 485.598 518.1 484.401C559.098 454.853 588.414 417.56 599.079 368.197C599.278 367.29 598.979 366.305 598.899 365.339C603.232 335.559 599.098 306.532 590.232 278.027C588.934 273.855 586.078 268.544 582.423 266.903C565.888 259.487 563.372 255.489 566.467 237.953C567.206 233.782 568.105 228.239 566.008 225.245C554.825 209.371 543.961 193.032 530.681 178.857C483.571 128.567 424.58 97.2223 356.741 81.4247C341.125 77.7939 324.729 77.2918 308.673 75.3412H308.613ZM537.81 422.717C536.692 430.712 527.566 434.884 515.663 431.948C511.35 430.886 506.317 430.828 501.964 431.832C491.979 434.13 483.172 429.534 481.834 420.747C485.628 422.021 489.523 424.165 493.537 424.416C496.312 424.59 499.288 422.195 502.164 420.959C500.426 419.009 498.609 417.116 496.991 415.069C493.796 411.052 490.721 406.977 487.865 403.25C495.793 406.204 502.483 410.53 509.273 410.704C516.263 410.897 523.392 407.054 533.017 404.215C527.805 409.159 523.671 413.099 519.498 417C518.18 418.236 516.762 419.395 515.384 420.612C516.882 422.137 518.439 425.034 519.857 424.976C525.788 424.725 531.699 423.586 537.81 422.736V422.717ZM409.682 529.457C407.905 534.131 407.725 536.545 406.407 537.762C399.318 544.27 392.488 551.242 384.54 556.611C372.817 564.529 358.559 557.403 356.662 543.498C368.983 554.564 374.914 555.124 381.385 546.839C377.291 541.141 373.396 535.734 369.482 530.307C370.201 529.554 370.92 528.801 371.619 528.067C382.443 542.339 394.705 540.543 409.662 529.438L409.682 529.457ZM472.169 486.815C469.373 498.055 460.147 503.617 449.842 501.28C439.877 499.021 435.004 493.285 436.502 485.637C448.863 496.549 453.876 496.8 472.169 486.815ZM453.716 445.969C451.38 455.857 444.011 460.55 434.205 459.295C423.701 457.943 417.99 452.072 418.549 442.609C429.033 453.964 440.776 454.524 453.716 445.988V445.969Z" fill="#24A5EE"/>
<path d="M311.114 370.77C298.194 372.025 285.273 373.435 272.332 374.382C269.317 374.594 266.181 373.184 263.106 372.527C256.476 371.33 249.866 370.133 243.236 368.935C242.577 368.935 241.898 368.8 241.259 368.916C237.944 369.515 234.649 370.171 231.354 370.789C233.291 373.937 235.228 377.085 237.165 380.214C240.819 381.527 244.534 382.705 248.129 384.154C257.874 388.074 267.26 393.366 277.385 395.838C308.818 403.544 339.971 400.415 370.086 389.658C390.695 382.3 409.527 371.697 423.007 354.045C426.202 349.855 429.457 345.722 432.672 341.55C434.21 320.441 430.436 300.878 414.939 284.732C414.24 283.709 413.541 282.685 412.842 281.642L412.982 281.758C411.624 280.426 410.246 279.093 408.888 277.761L409.008 277.857C403.636 272.643 398.264 267.448 392.892 262.233C391.793 260.321 391.094 258.004 389.517 256.575C363.116 232.936 352.832 202.577 348.878 169.031C346.701 150.491 340.61 132.82 328.788 117.524C328.209 116.365 327.629 115.226 327.05 114.067L326.811 113.72C324.874 111.75 322.956 109.78 321.019 107.81L321.119 107.906C319.182 106.786 317.185 105.743 315.288 104.546C303.406 97.0914 291.683 89.3663 279.521 82.3752C277.505 81.2164 272.232 82.1241 270.755 83.8623C257.854 99.1578 233.81 97.6514 223.046 80.8302C221.428 78.3002 217.195 75.384 214.559 75.693C181.049 79.5555 148.937 88.169 119.661 104.855C107.779 111.634 96.6753 119.687 85.2325 127.161L85.3323 127.084C84.6333 127.76 83.9344 128.436 83.2354 129.112L83.3353 129.015C82.6363 129.691 81.9374 130.386 81.2384 131.062L81.3582 130.946C80.6593 131.622 79.9404 132.318 79.2414 132.993L79.3612 132.878C78.6623 133.573 77.9633 134.249 77.2444 134.944L77.3842 134.828C76.6852 135.523 75.9663 136.199 75.2673 136.895L75.3871 136.759C74.6882 137.455 73.9693 138.131 73.2703 138.826L73.4101 138.71C72.5514 139.405 71.7127 140.101 70.854 140.796C61.7476 154.682 51.6427 168.084 43.7745 182.608C31.6327 204.991 26.74 229.479 25.5019 254.643C32.5713 241.163 40.759 228.533 53.9393 219.668C86.4306 197.787 127.649 204.798 160.799 226.293C186.8 243.152 212.122 261.075 238.922 276.621C275.508 297.846 315.588 308.95 358.583 308.68C368.129 308.622 377.675 307.618 387.22 307.058C389.477 304.431 391.734 301.824 394.649 298.444C400.141 310.051 406.491 320.268 409.647 331.353C411.783 338.827 403.356 334.404 399.821 335.66C377.455 355.513 350.655 366.463 321.259 371.967C318.084 372.566 314.509 371.176 311.114 370.712V370.77ZM202.477 86.0253C206.89 89.4629 209.746 91.7032 212.622 93.9241C208.528 96.5313 204.714 100.432 200.24 101.302C197.444 101.862 193.67 97.9025 190.355 95.9906C194.01 92.9971 197.664 90.0037 202.477 86.0253Z" fill="#5C6A7A"/>
<path d="M356.531 430.548C329.951 436.342 303.83 434.797 277.889 426.724C275.293 425.913 270 427.593 268.543 429.737C222.971 497.428 220.095 578.386 270.899 644.242C297.639 678.908 332.747 702.044 376.062 713.072C380.455 714.192 386.067 713.786 390.26 712.126C411.968 703.512 433.176 702.064 454.644 712.956C458.039 714.675 463.311 715.042 466.946 713.844C480.725 709.306 494.165 703.86 507.745 698.742C493.825 696.193 479.387 695.092 466.087 690.747C444.319 683.64 423.291 674.408 401.943 666.065C372.048 659.035 346.306 644.956 323.081 625.354C297.2 603.531 279.626 577.208 271.738 545.11C264.189 514.403 283.141 487.81 315.333 482.383C325.398 480.684 335.383 478.694 345.408 476.821C349.122 461.39 352.836 445.979 356.551 430.548H356.531Z" fill="#B4912C"/>
<path d="M387.207 307.078C377.661 307.638 368.115 308.642 358.57 308.7C315.574 308.951 275.494 297.865 238.909 276.641C212.109 261.075 186.767 243.172 160.786 226.312C127.635 204.817 86.4172 197.807 53.9258 219.688C40.7456 228.553 32.5579 241.183 25.4884 254.663C25.4884 265.845 25.4884 277.027 25.4884 290.179C32.8973 286.297 38.8684 283.284 44.7197 280.098C74.0358 264.223 104.89 262.91 136.962 270.248C164.72 276.583 189.064 290.179 214.246 302.269C249.872 319.38 286.418 334.752 326.977 336.626C346.048 337.495 364.361 333.343 381.316 324.169C389.044 319.998 386.308 313.103 387.167 307.078H387.207Z" fill="#455677"/>
<path d="M401.942 666.038C423.29 674.381 444.318 683.612 466.086 690.719C479.386 695.065 493.824 696.165 507.743 698.715C527.694 687.764 547.624 676.814 567.574 665.883C567.794 665.999 568.013 666.115 568.233 666.231C557.13 675.907 546.026 685.582 533.165 696.783C545.767 705.648 554.973 712.118 564.179 718.568L564.898 717.989C564.079 715.227 562.621 712.485 562.581 709.723C562.541 706.285 562.482 701.303 564.598 699.796C566.695 698.29 572.187 699.12 574.923 700.839C587.704 708.834 600.045 717.506 612.547 725.926V725.887C606.276 715.42 599.606 705.146 593.855 694.427C591.658 690.352 591.538 685.234 590.48 680.599C595.632 680.503 601.263 679.035 605.877 680.542C629.441 688.228 652.746 696.687 676.151 704.837C678.228 705.571 680.425 705.996 683.6 705.03C674.993 697.363 666.506 689.58 657.779 682.048C635.253 662.639 612.507 643.423 590.08 623.898C586.206 620.518 583.949 619.919 579.336 623.222C543.031 649.139 490.609 654.238 451.548 627.818C449.67 626.563 447.394 625.868 445.297 624.902C449.551 638.71 462.292 645.238 472.237 654.122C476.011 657.502 480.404 660.205 484.758 663.392C462.591 676.756 420.015 674.497 400.923 659.645C398.747 657.965 395.731 657.289 393.095 656.15L392.875 656.381C395.891 659.587 398.906 662.813 401.902 666.018L401.942 666.038Z" fill="#207EC5"/>
<path d="M461.287 820.128C467.139 822.89 473.15 825.4 478.821 828.49C482.955 830.75 485.511 831.02 488.307 826.443C492.141 820.147 496.914 814.412 501.268 808.425C498.372 806.648 495.676 804.466 492.581 803.191C484.173 799.695 475.147 797.378 467.258 793.071C461.227 789.788 456.554 784.168 451.282 779.572L451.063 779.842C450.384 779.147 449.705 778.452 449.046 777.776L449.066 777.949C448.367 777.254 447.668 776.578 446.969 775.883L447.109 775.96C440.279 772.774 433.449 769.568 426.619 766.381C404.712 772.986 398.362 790.908 412.78 807.884C424.542 821.731 437.004 835.134 450.284 847.61C457.094 854.002 466.38 857.923 474.528 862.944C476.565 854.389 481.936 844.848 479.64 837.548C477.503 830.711 467.238 826.269 460.548 820.785C460.189 820.263 459.83 819.722 459.45 819.201C460.049 819.51 460.668 819.819 461.267 820.128H461.287ZM440.479 801.994C429.954 802.206 423.843 797.552 421.307 789.228C421.986 788.513 422.665 787.799 423.344 787.084C429.056 792.048 434.767 797.03 440.479 801.994Z" fill="#E5886D"/>
<path d="M450.288 603.809C446.773 604.581 443.238 605.335 439.724 606.107C451.306 614.643 463.029 622.851 478.446 623.315C477.887 617.617 477.307 611.92 476.748 606.223C476.509 605.933 476.289 605.644 476.049 605.335C476.309 605.605 476.569 605.875 476.828 606.146L485.136 609.004C486.414 609.429 487.692 609.854 488.97 610.279C489.629 610.549 490.308 610.8 490.967 611.07C491.746 611.341 492.525 611.611 493.283 611.882C498.476 612.422 503.668 612.944 508.88 613.485C515.57 609.468 511.396 604.775 509.959 600.101C509.28 597.861 509.499 595.35 509.3 592.975C511.756 592.801 514.312 592.106 516.648 592.53C522.779 593.67 528.79 595.311 537.637 597.397C533.983 592.144 531.906 589.672 530.448 586.91C529.369 584.863 527.952 581.831 528.81 580.344C529.609 578.915 533.124 578.49 535.46 578.413C539.954 578.278 544.467 578.683 548.96 578.876C547.602 574.512 546.244 570.147 544.886 565.782C544.687 565.164 544.467 564.566 544.247 563.967C543.089 561.997 541.931 560.027 540.453 557.536H560.683C561.401 557.15 562.12 556.763 562.839 556.358L563.219 556.667C550.298 546.721 537.357 536.794 524.417 526.848C517.947 529.861 511.456 532.893 504.766 536.002C508.82 544.423 517.367 553.731 508.84 564.315C501.272 573.72 491.886 566.98 483.298 564.701C480.203 587.548 479.145 588.475 459.514 585.559C456.638 591.758 462.19 601.974 450.208 603.809H450.288Z" fill="#F0BC19"/>
<path d="M356.534 430.543C352.82 445.974 349.105 461.385 345.391 476.816C343.973 486.975 342.415 497.094 341.137 507.272C336.784 541.88 340.318 575.6 353.938 608.084C355.236 610.904 356.534 613.704 357.832 616.524C358.172 616.717 358.332 616.987 358.312 617.354C358.571 617.933 358.811 618.493 359.07 619.073C367.398 629.231 375.725 639.37 384.053 649.529C384.333 649.258 384.632 648.988 384.952 648.737C378.561 640.278 372.011 631.916 365.92 623.264C364.422 621.12 364.382 618.011 363.683 615.345C366.28 615.867 369.155 615.867 371.412 616.987C382.635 622.568 392.44 618.011 395.556 605.496C391.182 607.06 386.909 609.301 382.395 609.919C379.68 610.286 376.584 608.122 373.669 607.118C375.646 604.897 377.563 602.638 379.62 600.475C382.995 596.941 386.469 593.503 391.662 588.25C380.678 591.803 373.469 595.473 365.92 596.265C355.775 597.327 350.064 591.784 348.906 581.857C346.789 563.549 343.554 545.221 343.474 526.894C343.394 510.826 346.649 494.68 349.325 478.709C349.784 476.005 354.437 473.282 357.752 471.834C394.737 455.592 417.363 427.395 430.444 391.107C430.643 390.566 430.284 389.852 430.184 389.214C421.397 396.476 413.509 405.34 403.584 410.613C388.646 418.569 372.271 424.016 356.514 430.524L356.534 430.543Z" fill="#207EC5"/>
<path d="M308.614 75.3549C324.65 77.3055 341.066 77.7883 356.682 81.4384C424.521 97.2361 483.513 128.58 530.622 178.87C543.902 193.046 554.766 209.384 565.949 225.259C568.046 228.233 567.147 233.795 566.408 237.967C563.313 255.503 565.829 259.5 582.365 266.916C586.019 268.558 588.875 273.869 590.173 278.041C599.04 306.546 603.173 335.573 598.84 365.353C606.568 337.272 604.372 309.23 597.162 281.575C579.768 214.753 538.031 164.54 480.517 125.877C427.676 90.3608 368.405 72.1877 304.461 67.6685C301.904 67.4947 299.328 67.6492 293.417 67.6492C300.307 71.1448 304.481 73.2499 308.654 75.3743L308.614 75.3549Z" fill="#91D1F7"/>
<path d="M432.669 341.55C429.434 345.722 426.179 349.855 423.003 354.046C409.544 371.717 390.712 382.3 370.083 389.658C339.968 400.415 308.814 403.544 277.382 395.838C267.257 393.366 257.891 388.055 248.125 384.154C244.531 382.705 240.816 381.527 237.162 380.214C256.712 405.089 283.412 416.715 314.945 418.859C343.942 420.828 370.921 414.513 395.045 398.542C415.854 384.772 430.173 366.753 432.669 341.55Z" fill="#455677"/>
<path d="M481.163 624.071C493.065 626.292 505.067 630.83 516.809 630.27C549.58 628.667 575.242 613.352 594.812 587.821C600.125 580.888 601.942 576.002 593.135 571.058C589.201 568.837 585.526 566.191 581.732 563.738C580.674 563.062 579.615 562.367 578.577 561.691L578.717 561.768C575.022 560.436 571.328 559.084 567.613 557.751C561.922 559.142 556.23 560.552 550.539 561.942C552.057 564.395 553.514 566.867 555.092 569.262C561.802 579.42 559.885 584.789 548.222 589.134C546.864 589.636 545.187 591.471 545.107 592.804C544.208 605.434 543.669 606.052 529.95 604.391C525.057 603.792 522.72 604.623 522.501 610.069C522.161 618.721 516.53 623.221 507.983 621.772C499.515 620.343 491.387 617.099 483.12 614.665C482.461 617.794 481.802 620.923 481.143 624.051L481.163 624.071Z" fill="#207EC5"/>
<path d="M523.776 810.786C503.926 820.152 496.876 838.326 491.205 856.846C488.828 864.629 488.608 873.417 489.327 881.586C490.166 891.242 497.096 894.506 505.523 890.682C524.994 881.837 544.445 841.068 539.173 820.114C538.114 820.384 536.577 821.234 536.077 820.848C531.864 817.623 527.85 814.166 523.776 810.767V810.786Z" fill="#A36B70"/>
<path d="M98.8008 791.133C92.8097 797.275 93.8681 803.512 99.979 808.321C106.21 813.227 111.282 809.171 114.977 804.13C129.555 784.258 150.483 781.593 171.851 787.734C194.637 794.281 213.489 792.33 232.101 777.344C247.239 765.138 265.431 757.645 285.282 754.613C287.219 754.323 290.234 751.523 290.234 749.901C290.234 742.89 289.276 735.899 288.676 728.908C288.277 729.256 287.838 729.449 287.299 729.487C288.896 743.605 277.034 741.21 268.966 743.431C255.007 751.117 241.048 758.823 227.089 766.51H227.169C226.729 767.012 226.29 767.533 225.851 768.055C214.488 776.359 201.687 780.395 187.668 777.634C176.445 775.432 165.541 771.647 154.497 768.576C151.702 768.634 148.886 768.692 146.09 768.75C134.667 775.142 123.224 781.11 114.897 791.944C112.48 795.092 103.654 800.442 98.7809 791.152L98.8008 791.133Z" fill="#A36B70"/>
<path d="M474.715 104C485.399 110.393 496.103 116.785 506.787 123.178C510.602 122.637 514.436 121.517 518.21 121.652C545.09 122.618 567.536 114.391 583.433 92.606C591.64 81.3661 598.949 69.6434 597.851 54.9851C583.273 65.9933 568.655 76.9628 554.156 88.0676C552.699 89.1877 551.46 91.0224 550.901 92.7605C547.686 103.035 540.257 103.305 531.131 101.528C525.22 100.37 518.949 100.003 512.918 100.389C500.157 101.219 487.436 102.764 474.695 104.02L474.715 104Z" fill="#24A5EE"/>
<path d="M154.514 768.564C165.558 771.634 176.462 775.42 187.685 777.621C201.704 780.364 214.505 776.347 225.868 768.042C226.307 767.521 226.746 766.999 227.186 766.459L227.106 766.478C237.37 752.534 251.849 745.678 268.983 743.399C277.071 741.178 288.913 743.573 287.316 729.456C287.415 721.75 282.063 723.295 277.73 724.647C269.342 727.235 261.135 730.402 252.867 733.318C252.867 733.318 252.787 733.338 252.807 733.338C252.068 733.936 251.349 734.516 250.61 735.114L250.75 734.998C249.512 735.752 248.254 736.505 247.016 737.239L246.876 737.335C246.157 737.876 245.438 738.417 244.739 738.977L245.119 739.421L244.719 739.015C244.02 739.595 243.321 740.155 242.622 740.715H242.503C241.484 741.43 240.486 742.144 239.467 742.859C229.222 747.976 219.018 753.21 208.653 758.077C207.495 758.618 205.338 757.208 203.641 756.706C204.619 755.586 205.618 754.446 206.596 753.326C202.303 749.174 198.009 745.041 193.716 740.889L193.636 741.082C192.997 740.348 192.358 739.633 191.719 738.9L191.759 739.035C191.14 738.32 190.52 737.625 189.901 736.91C189.222 736.041 188.543 735.153 187.844 734.284C184.929 727.466 182.013 720.649 179.078 713.832C175.703 714.025 172.328 714.199 168.953 714.373C172.667 727.466 175.403 740.889 180.376 753.519C184.33 763.581 184.15 765.686 172.967 766.613C166.816 767.231 160.685 767.868 154.534 768.486L154.514 768.564Z" fill="#E5886D"/>
<path d="M85.2409 127.233C96.7038 119.759 107.787 111.705 119.669 104.927C148.926 88.2407 181.057 79.6272 214.567 75.7647C217.203 75.4557 221.437 78.3719 223.055 80.9019C233.818 97.7038 257.862 99.2102 270.763 83.934C272.241 82.1765 277.513 81.2881 279.53 82.4469C291.692 89.438 303.414 97.1631 315.296 104.618C317.194 105.815 319.191 106.858 321.128 107.978C309.885 98.824 299.32 88.7042 287.258 80.7281C266.47 66.9968 243.065 65.9539 218.541 68.986C172.81 74.6639 130.773 88.4145 94.7467 116.997C91.1321 119.875 88.3962 123.814 85.2609 127.252L85.2409 127.233Z" fill="#ACB6C5"/>
<path d="M635.434 109.327C635.514 108.651 635.274 108.091 634.715 107.666C627.865 111.374 620.796 114.773 614.186 118.848C591.979 132.56 570.911 148.744 542.553 148.531C543.372 149.825 543.851 151.757 545.029 152.336C564.34 161.683 589.443 163.866 609.713 150.636C621.994 142.622 628.544 130.802 636.193 119.485C636.233 118.23 636.273 116.975 636.313 115.719C636.033 113.595 635.734 111.451 635.454 109.327H635.434Z" fill="#24A5EE"/>
<path d="M597.864 54.9868C598.962 69.6451 591.653 81.3678 583.446 92.6078C567.549 114.392 545.083 122.62 518.223 121.654C514.429 121.519 510.595 122.639 506.8 123.18C560.7 145.003 608.828 111.071 610.705 62.2484C610.984 54.9675 608.967 47.5901 608.009 40.2513C604.634 45.1567 601.259 50.0814 597.884 54.9868H597.864Z" fill="#207EC5"/>
<path d="M370.122 750.848C368.465 759.963 366.787 769.059 365.13 778.175C372.539 779.199 376.752 775.838 379.788 769.407C382.803 763.015 386.198 756.506 390.771 751.157C401.715 738.372 418.65 729.971 443.732 741.191C448.785 743.451 454.336 746.676 457.951 739.067C455.055 735.127 452.159 731.168 449.284 727.228C448.665 726.746 448.026 726.243 447.387 725.761C447.387 725.761 446.887 725.394 446.887 725.413C445.25 725.413 443.572 725.625 441.995 725.316C422.104 721.319 403.353 722.729 386.757 735.629C385.24 736.807 382.544 736.556 380.387 736.981V737.058C379.748 737.792 379.089 738.507 378.45 739.241L378.51 739.144C376.513 741.713 374.516 744.262 372.519 746.831C372.519 746.831 372.479 746.947 372.499 746.947C371.7 748.26 370.921 749.573 370.122 750.886V750.848Z" fill="#EFB04B"/>
<path d="M457.978 739.061C454.344 746.67 448.812 743.445 443.759 741.185C418.657 729.964 401.742 738.365 390.799 751.15C386.206 756.519 382.831 763.008 379.815 769.401C376.78 775.813 372.566 779.173 365.157 778.169C367.294 781.51 368.672 786.068 371.767 787.902C376.8 790.896 381.732 791.919 383.63 782.997C389.421 755.921 414.643 743.58 440.784 753.912C444.958 755.554 453.285 757.253 453.625 756.481C455.961 751.035 456.72 744.951 457.998 739.061H457.978Z" fill="#A36B70"/>
<path d="M636.19 119.483C628.561 130.8 621.991 142.619 609.71 150.634C589.44 163.883 564.338 161.7 545.027 152.334C543.848 151.754 543.369 149.823 542.55 148.529C539.894 148.529 537.238 148.51 534.582 148.49C542.49 161.024 556.21 164.983 569.23 168.633C604.078 178.386 638.047 153.01 636.17 119.464L636.19 119.483Z" fill="#207EC5"/>
<path d="M243.243 368.933C249.873 370.13 256.483 371.328 263.113 372.525C279.149 369.3 295.305 366.557 311.161 362.656C319.528 360.59 327.357 356.476 336.942 352.672C322.165 351.069 309.523 349.659 296.862 348.326C295.624 348.191 294.007 348.095 293.108 348.713C278.809 358.736 262.174 361.073 245.24 362.367C238.11 362.907 239.568 365.495 243.243 368.914V368.933Z" fill="#455677"/>
<path d="M474.528 862.98C466.36 857.94 457.074 854.019 450.285 847.646C437.004 835.17 424.543 821.767 412.781 807.92C398.362 790.945 404.713 773.022 426.62 766.418C426.8 765.838 427.039 765.278 427.359 764.757C410.963 764.332 401.577 770.164 398.302 783.76C397.404 787.507 397.504 792.432 399.301 795.715C416.495 827.098 440 853.421 469.216 874.935C470.175 875.63 471.493 875.881 474.528 877.079V862.98Z" fill="#A36B70"/>
<path d="M597.873 54.9872C601.248 50.0818 604.623 45.1571 607.998 40.2517C608.157 38.1273 608.317 36.0029 608.477 33.8785C574.268 81.5613 526.22 100.623 467.508 100.932C469.904 101.955 472.301 102.979 474.697 103.983C487.438 102.728 500.159 101.183 512.92 100.352C518.951 99.9662 525.221 100.333 531.133 101.492C540.259 103.288 547.688 102.998 550.903 92.724C551.442 90.9859 552.68 89.1512 554.158 88.031C568.656 76.9263 583.275 65.9567 597.853 54.9486L597.873 54.9872Z" fill="#91D1F7"/>
<path d="M309.136 710.422C303.245 723.728 299.63 737.131 307.039 751.094C321.457 750.592 331.283 741.727 330.983 729.522C330.744 719.344 321.098 710.924 309.136 710.441V710.422Z" fill="#EFB04B"/>
<path d="M309.136 710.408C321.098 710.891 330.724 719.311 330.983 729.489C331.283 741.714 321.458 750.559 307.039 751.061C310.374 754.846 313.03 759.732 317.224 762.069C321.058 764.213 326.63 764.174 331.263 763.672C332.181 763.575 332.88 756.951 332.741 753.378C332.241 742.254 333.18 731.71 340.809 722.497C341.787 721.3 340.649 716.607 339.091 715.642C332.441 711.509 325.212 708.226 318.302 704.498C311.093 700.597 311.113 706.835 309.176 710.408H309.136Z" fill="#A36B70"/>
<path d="M534.587 148.501C537.243 148.501 539.899 148.52 542.555 148.54C570.913 148.752 591.981 132.568 614.188 118.856C620.798 114.781 627.867 111.382 634.717 107.674C635.596 102.074 633.659 101.436 629.026 104.372C617.683 111.556 605.94 118.2 594.877 125.751C575.026 139.308 553.499 146.473 525.8 143.113C530.493 145.99 532.53 147.246 534.587 148.501Z" fill="#91D1F7"/>
<path d="M311.12 370.769C314.515 371.233 318.09 372.604 321.265 372.025C350.661 366.521 377.461 355.571 399.827 335.717C396.572 336.2 392.538 335.679 390.162 337.339C366.277 354.025 339.837 364.879 311.12 370.769Z" fill="#ACB6C5"/>
<path d="M98.7944 791.114C103.667 800.403 112.494 795.054 114.91 791.906C123.238 781.091 134.681 775.123 146.104 768.711C142.189 769.233 138.155 769.31 134.421 770.372C126.553 772.593 118.844 775.316 111.076 777.827L110.976 777.692C109.618 778.966 108.26 780.222 106.922 781.496L107.102 781.709C106.403 782.346 105.704 782.964 105.005 783.601H105.065C104.346 784.2 103.607 784.818 102.888 785.417C102.888 785.417 102.968 785.417 102.988 785.417C102.249 786.015 101.51 786.633 100.771 787.232C100.771 787.232 100.851 787.29 100.851 787.309C100.272 788.043 99.713 788.758 99.1339 789.472C98.9541 790.013 98.8343 790.573 98.7944 791.133V791.114Z" fill="#E5886D"/>
<path d="M524.499 526.854C537.42 536.8 550.361 546.727 563.281 556.673C564.34 556.557 565.378 556.422 566.436 556.306C566.576 555.031 566.716 553.737 566.856 552.462C553.815 541.396 540.795 530.33 527.754 519.264C526.556 520.423 525.358 521.562 524.16 522.721L524.499 526.854Z" fill="#EFB04B"/>
<path d="M451.259 779.614C456.531 784.191 461.204 789.811 467.235 793.113C475.123 797.42 484.15 799.737 492.557 803.233C495.652 804.527 498.348 806.709 501.244 808.467C503.101 806.883 504.939 805.319 505.817 804.566C487.485 796.184 469.372 787.899 451.259 779.614Z" fill="#ACB6C5"/>
<path d="M380.417 736.943C382.574 736.518 385.27 736.769 386.787 735.591C403.362 722.71 422.114 721.3 442.025 725.278C443.602 725.587 445.3 725.356 446.917 725.375C425.669 713.71 398.03 718.519 380.437 736.924L380.417 736.943Z" fill="#ACB6C5"/>
<path d="M111.084 777.84C118.852 775.329 126.561 772.606 134.429 770.385C138.163 769.323 142.197 769.245 146.111 768.724C148.927 768.666 151.723 768.608 154.519 768.55C160.65 767.932 166.8 767.295 172.931 766.677C150.625 761.656 129.556 763.104 111.064 777.82L111.084 777.84Z" fill="#ACB6C5"/>
<path d="M354.934 747.199C358.329 742.1 361.724 737.002 365.099 731.903C361.644 731.034 358.189 730.146 354.734 729.277C352.258 733.951 349.782 738.605 347.305 743.278C349.861 744.592 352.398 745.886 354.954 747.199H354.934Z" fill="#E5886D"/>
<path d="M252.85 733.318C261.118 730.402 269.325 727.235 277.713 724.647C282.046 723.314 287.418 721.75 287.298 729.456C287.818 729.398 288.277 729.204 288.676 728.857C289.215 725.709 289.735 722.561 290.533 717.887C276.455 720.398 264.113 725.497 252.85 733.299V733.318Z" fill="#ACB6C5"/>
<path d="M523.773 810.808C527.847 814.188 531.861 817.664 536.074 820.889C536.594 821.275 538.111 820.426 539.17 820.155C536.813 808.722 533.918 806.965 523.773 810.827V810.808Z" fill="#E5886D"/>
<path d="M524.16 522.723C525.358 521.564 526.557 520.424 527.755 519.266C522.782 514.747 517.79 510.227 512.797 505.689C515.653 511.56 518.489 517.431 521.344 523.302C522.283 523.109 523.222 522.916 524.16 522.723Z" fill="#91D1F7"/>
<path d="M427.337 764.735C427.017 765.257 426.758 765.817 426.598 766.396C433.428 769.583 440.257 772.788 447.087 775.975C440.517 772.228 433.927 768.482 427.357 764.735H427.337Z" fill="#ACB6C5"/>
<path d="M354.93 747.194C352.374 745.88 349.838 744.586 347.281 743.273C347.281 748.063 347.281 752.872 347.281 757.661C348.34 757.796 349.418 757.931 350.477 758.086L354.93 747.194Z" fill="#A36B70"/>
<path d="M193.638 740.942C197.931 745.095 202.225 749.227 206.518 753.38C206.578 751.815 207.297 749.382 206.558 748.861C202.445 745.964 197.991 743.53 193.638 740.942Z" fill="#ACB6C5"/>
<path d="M481.159 624.081C481.818 620.952 482.477 617.824 483.136 614.676C483.815 612.783 484.474 610.89 485.153 608.998C482.377 608.051 479.601 607.105 476.845 606.14L476.746 606.217C477.305 611.914 477.884 617.611 478.443 623.308C479.342 623.559 480.26 623.811 481.159 624.062V624.081Z" fill="#455677"/>
<path d="M566.852 552.445C566.712 553.719 566.572 555.013 566.432 556.288C567.012 556.636 567.411 557.118 567.631 557.736C571.325 559.069 575.02 560.421 578.734 561.754C574.78 558.644 570.806 555.554 566.852 552.445Z" fill="#91D1F7"/>
<path d="M354.734 729.253C358.189 730.122 361.644 731.01 365.099 731.879C364.639 730.373 364.06 727.553 363.761 727.592C360.725 727.881 357.73 728.635 354.714 729.253H354.734Z" fill="#ACB6C5"/>
<path d="M372.539 746.785C374.536 744.236 376.533 741.668 378.53 739.099C376.533 741.648 374.536 744.217 372.539 746.785Z" fill="#ACB6C5"/>
<path d="M106.889 781.473C108.248 780.197 109.607 778.941 110.946 777.665C109.587 778.921 108.228 780.197 106.889 781.473Z" fill="#ACB6C5"/>
<path d="M564.201 718.612C564.64 719.385 565.08 720.139 565.52 720.912C565.739 720.699 566.219 720.39 566.179 720.313C565.799 719.54 565.34 718.786 564.92 718.032L564.201 718.612Z" fill="#207EC5"/>
<path d="M239.411 742.904C240.431 742.189 241.45 741.473 242.449 740.758C241.43 741.473 240.411 742.189 239.411 742.904Z" fill="#ACB6C5"/>
<path d="M508.975 503.582C510.254 504.297 511.533 504.993 512.832 505.708C511.553 504.993 510.274 504.297 508.975 503.582Z" fill="#91D1F7"/>
<path d="M187.797 734.333C188.477 735.203 189.156 736.092 189.856 736.961C189.176 736.072 188.497 735.203 187.797 734.333Z" fill="#ACB6C5"/>
<path d="M244.697 739.004C245.416 738.463 246.136 737.922 246.835 737.361C246.116 737.902 245.396 738.443 244.697 739.004Z" fill="#ACB6C5"/>
<path d="M612.551 725.984C612.871 726.235 613.19 726.486 613.49 726.737C613.43 726.544 613.45 726.274 613.33 726.177C613.13 726.042 612.831 726.003 612.571 725.945L612.551 725.984Z" fill="#207EC5"/>
<path d="M385.574 145.04C385.374 145.233 385.154 145.426 384.954 145.62C385.394 145.774 385.833 145.929 386.253 146.064C386.013 145.716 385.794 145.368 385.574 145.021V145.04Z" fill="#5C6A7A"/>
<path d="M449.006 777.784C449.685 778.48 450.365 779.156 451.024 779.852C450.345 779.156 449.665 778.48 449.006 777.784Z" fill="#ACB6C5"/>
<path d="M578.58 561.688C579.639 562.365 580.698 563.06 581.737 563.737C580.678 563.06 579.619 562.365 578.58 561.688Z" fill="#91D1F7"/>
<path d="M412.835 281.68C413.534 282.705 414.234 283.729 414.933 284.773C414.234 283.748 413.534 282.724 412.835 281.68Z" fill="#ACB6C5"/>
<path d="M77.245 135.001C77.9445 134.306 78.644 133.629 79.3635 132.933C78.664 133.629 77.9645 134.306 77.245 135.001Z" fill="#ACB6C5"/>
<path d="M447.402 725.748C448.042 726.251 448.661 726.734 449.301 727.217C448.661 726.714 448.042 726.231 447.402 725.748Z" fill="#ACB6C5"/>
<path d="M524.152 522.719C523.213 522.912 522.274 523.105 521.336 523.298C517.262 524.998 512.769 528.667 509.194 527.953C502.224 526.582 495.854 522.584 489.084 520.073C486.967 519.281 484.331 519.784 481.915 519.706C482.254 522.294 481.735 525.5 483.133 527.316C486.069 531.139 490.442 533.92 493.478 537.686C496.892 541.935 499.888 546.647 502.224 551.533C503.103 553.387 502.484 557.173 501.026 558.467C499.668 559.664 495.534 559.703 493.917 558.563C486.808 553.465 480.297 547.555 473.248 542.36C470.971 540.68 467.696 540.216 464.88 539.193C464.92 542.09 464.261 545.18 465.14 547.825C467.337 554.508 470.712 560.861 472.549 567.621C473.328 570.479 471.431 574.033 470.752 577.277C467.716 576.331 464.261 575.983 461.745 574.322C457.951 571.831 455.015 568.123 451.281 565.496C449.224 564.048 446.268 563.739 443.732 562.928C443.872 565.748 443.273 568.857 444.331 571.29C446.368 575.983 449.683 580.155 451.86 584.809C454.915 591.298 455.215 597.845 450.222 603.813C462.224 601.978 456.653 591.742 459.528 585.562C479.139 588.478 480.217 587.551 483.313 564.705C491.9 566.984 501.286 573.743 508.855 564.318C517.382 553.716 508.835 544.426 504.781 536.006C511.471 532.878 517.961 529.865 524.431 526.852C524.311 525.481 524.212 524.09 524.092 522.719H524.152Z" fill="#162B6E"/>
<path d="M537.814 422.724C531.684 423.573 525.792 424.713 519.861 424.964C518.443 425.022 516.886 422.144 515.388 420.599C516.766 419.402 518.184 418.243 519.502 416.988C523.676 413.087 527.809 409.147 533.022 404.203C523.396 407.042 516.287 410.885 509.277 410.692C502.467 410.499 495.797 406.173 487.869 403.237C490.745 406.965 493.82 411.039 496.995 415.057C498.613 417.104 500.43 418.996 502.168 420.947C499.292 422.183 496.316 424.578 493.541 424.404C489.527 424.153 485.632 422.009 481.838 420.734C483.176 429.522 492.003 434.099 501.968 431.82C506.302 430.816 511.334 430.873 515.668 431.936C527.55 434.871 536.696 430.7 537.814 422.704V422.724Z" fill="#207EC5"/>
<path d="M409.676 529.457C394.699 540.543 382.437 542.339 371.633 528.086C370.914 528.839 370.195 529.592 369.496 530.326C373.391 535.734 377.285 541.161 381.399 546.858C374.928 555.143 368.977 554.583 356.676 543.517C358.573 557.422 372.831 564.548 384.554 556.63C392.502 551.261 399.332 544.289 406.421 537.781C407.759 536.564 407.919 534.169 409.696 529.476L409.676 529.457Z" fill="#207EC5"/>
<path d="M472.172 486.814C453.879 496.798 448.867 496.547 436.505 485.636C435.007 493.284 439.88 499 449.845 501.279C460.13 503.616 469.356 498.073 472.172 486.814Z" fill="#207EC5"/>
<path d="M453.721 445.96C440.781 454.496 429.038 453.955 418.554 442.58C417.995 452.043 423.726 457.914 434.211 459.266C444.016 460.521 451.385 455.828 453.721 445.94V445.96Z" fill="#207EC5"/>
<path d="M391.157 654.277C389.08 652.423 387.023 650.569 384.946 648.735C384.647 648.986 384.347 649.256 384.048 649.526C386.324 651.187 388.601 652.848 390.877 654.509L391.137 654.297L391.157 654.277Z" fill="#207EC5"/>
<path d="M393.112 656.191C392.452 655.553 391.793 654.916 391.133 654.278L390.873 654.49C391.533 655.128 392.212 655.766 392.872 656.423L393.092 656.191H393.112Z" fill="#207EC5"/>
<path d="M202.473 86.0195C197.64 89.9786 193.986 92.9914 190.351 95.9848C193.686 97.9161 197.44 101.856 200.236 101.296C204.69 100.407 208.524 96.5256 212.618 93.9184C209.762 91.6974 206.886 89.4572 202.473 86.0195Z" fill="#ACB6C5"/>
<path d="M392.899 656.42C392.24 655.783 391.561 655.145 390.902 654.489C388.625 652.828 386.349 651.167 384.072 649.506C375.745 639.348 367.417 629.209 359.089 619.05C358.79 619.012 358.231 618.973 358.211 618.896C358.211 618.374 358.271 617.853 358.331 617.331C358.331 616.964 358.191 616.675 357.851 616.501C345.11 618.857 337.801 613.894 338.64 606.014C343.713 606.69 348.825 607.366 353.957 608.042C340.318 575.558 336.803 541.839 341.156 507.23C342.434 497.072 343.992 486.933 345.41 476.774C335.385 478.628 325.38 480.637 315.335 482.336C283.143 487.763 264.192 514.357 271.74 545.064C279.628 577.161 297.222 603.484 323.083 625.308C346.309 644.91 372.05 658.989 401.945 666.018C398.93 662.813 395.914 659.587 392.919 656.381L392.899 656.42ZM293.727 509.335C304.052 520.884 315.874 519.281 328.236 513.082C327.257 522.738 322.125 525.886 309.184 525.095C298.92 524.457 293.647 519.223 293.727 509.355V509.335Z" fill="#F9C10F"/>
<path d="M440.488 801.989C434.776 797.026 429.065 792.043 423.353 787.08C422.674 787.794 421.995 788.509 421.316 789.223C423.853 797.528 429.963 802.182 440.488 801.989Z" fill="#455677"/>
<path d="M461.295 820.121C460.695 819.812 460.076 819.503 459.476 819.194C459.836 819.715 460.196 820.257 460.576 820.779C460.815 820.547 461.055 820.334 461.315 820.102L461.295 820.121Z" fill="#162B6E"/>
<path d="M485.15 608.979C484.471 610.872 483.792 612.765 483.133 614.657C491.42 617.11 499.548 620.335 508.015 621.764C516.563 623.213 522.194 618.713 522.534 610.061C522.733 604.615 525.07 603.784 529.982 604.383C543.702 606.044 544.241 605.426 545.14 592.795C545.24 591.482 546.897 589.647 548.255 589.126C559.918 584.761 561.835 579.412 555.125 569.253C553.547 566.859 552.089 564.367 550.572 561.915L550.612 561.818C549.973 561.219 549.334 560.621 548.694 560.003C547.237 561.316 545.779 562.629 544.321 563.942C544.541 564.541 544.76 565.14 544.96 565.758C546.318 570.123 547.676 574.487 549.034 578.852C544.541 578.659 540.027 578.253 535.534 578.388C533.198 578.465 529.683 578.89 528.884 580.32C528.045 581.807 529.463 584.839 530.522 586.886C531.98 589.648 534.036 592.12 537.711 597.373C528.864 595.287 522.833 593.645 516.722 592.506C514.386 592.062 511.83 592.757 509.373 592.95C509.573 595.325 509.353 597.836 510.032 600.076C511.47 604.75 515.644 609.462 508.954 613.46C503.762 612.919 498.57 612.398 493.357 611.857C492.579 611.587 491.8 611.316 491.041 611.046C490.382 610.795 489.703 610.524 489.024 610.254C487.746 609.829 486.468 609.404 485.19 608.96L485.15 608.979Z" fill="#162B6E"/>
<path d="M544.314 563.97C545.772 562.657 547.23 561.343 548.687 560.03C549.326 560.629 549.966 561.247 550.605 561.845L550.565 561.942C556.256 560.552 561.948 559.142 567.639 557.751C567.419 557.133 567.02 556.65 566.441 556.303C565.382 556.419 564.344 556.534 563.286 556.67C563.286 556.67 562.906 556.38 562.906 556.361C562.187 556.747 561.468 557.133 560.749 557.539H540.52C541.977 560.03 543.136 562 544.314 563.97Z" fill="#455677"/>
<path d="M493.313 611.88C498.505 612.421 503.697 612.943 508.909 613.483C503.717 612.943 498.525 612.421 493.313 611.88Z" fill="#455677"/>
<path d="M488.978 610.287C489.658 610.558 490.317 610.828 490.997 611.08C490.317 610.809 489.658 610.558 488.978 610.287Z" fill="#455677"/>
<path d="M476.845 606.148C476.585 605.877 476.325 605.607 476.065 605.336C476.305 605.626 476.525 605.916 476.765 606.225L476.865 606.148H476.845Z" fill="#455677"/>
<path d="M353.964 608.049C348.852 607.373 343.72 606.697 338.647 606.021C337.809 613.901 345.098 618.864 357.859 616.508C356.561 613.688 355.263 610.868 353.964 608.068V608.049Z" fill="#B4912C"/>
<path d="M358.325 617.345C358.265 617.867 358.185 618.388 358.205 618.91C358.205 618.968 358.765 619.007 359.085 619.065C358.825 618.485 358.585 617.925 358.325 617.345Z" fill="#B4912C"/>
<path d="M268.957 743.431C251.803 745.71 237.344 752.566 227.08 766.509C241.039 758.823 254.998 751.117 268.957 743.431Z" fill="#162B6E"/>
<path d="M227.166 766.46C226.726 766.982 226.286 767.523 225.847 768.045C226.286 767.523 226.726 767.001 227.166 766.46Z" fill="#162B6E"/>
<path d="M293.716 509.329C293.637 519.198 298.909 524.451 309.173 525.069C322.094 525.861 327.226 522.713 328.225 513.057C315.863 519.275 304.061 520.859 293.716 509.31V509.329Z" fill="#B4912C"/>
</svg>
